<?xml version="1.0" encoding="UTF-8"?>
<svg version="1.1" xmlns="http://www.w3.org/2000/svg" width="512" height="512">
<path d="M0 0 C37.05873557 -0.78455605 72.67828592 13.36966041 99.47705078 38.73461914 C109.22996019 48.20248283 117.26526649 58.19704111 123.88671875 70.12109375 C124.22300293 70.72260254 124.55928711 71.32411133 124.90576172 71.94384766 C132.97918964 86.57764679 140.1863539 104.16174453 139.88671875 121.12109375 C140.53253906 121.23324219 141.17835938 121.34539062 141.84375 121.4609375 C163.03336037 125.89597223 180.56454822 138.37378099 195.88671875 153.12109375 C196.96373047 154.08595703 196.96373047 154.08595703 198.0625 155.0703125 C217.90689838 173.40351421 227.7779938 202.72145377 228.88671875 229.12109375 C229.61372569 255.96888112 218.10103128 280.38937366 200.16040039 299.77368164 C180.76234288 320.12154988 153.88078287 332.19844039 125.88671875 334.12109375 C124.12653087 334.14512397 122.36604398 334.15260374 120.60571289 334.14404297 C119.71815811 334.14072968 118.83060333 334.13741638 117.91615295 334.13400269 C117.24643967 334.12974274 116.57672638 334.12548279 115.88671875 334.12109375 C115.8956012 335.17265656 115.90448364 336.22421936 115.91363525 337.30764771 C115.99477122 347.2243994 116.05470826 357.14108363 116.09396744 367.05809212 C116.11482967 372.15638198 116.14312258 377.25440358 116.18847656 382.35253906 C116.23198271 387.27383938 116.25586612 392.1948819 116.26622772 397.11635971 C116.27361051 398.99263441 116.28802748 400.86889521 116.30963898 402.74505997 C116.33873652 405.37608424 116.34267213 408.00604738 116.34082031 410.63720703 C116.35520142 411.41044815 116.36958252 412.18368927 116.38439941 412.98036194 C116.34481159 418.18888027 115.19479623 421.122865 111.88671875 425.12109375 C106.18433327 429.42697666 102.03145833 430.26952081 95.05621338 430.26153564 C94.2500457 430.26450677 93.44387802 430.26747789 92.61328101 430.27053905 C89.90265869 430.27923439 87.19208049 430.280735 84.48144531 430.28222656 C82.54164536 430.28685417 80.60184632 430.29187875 78.66204834 430.29727173 C73.38506512 430.31040386 68.10809462 430.31684236 62.8310976 430.32128239 C59.53493643 430.324212 56.23877874 430.32831661 52.94261932 430.33278656 C42.63177769 430.34646408 32.32094401 430.3561293 22.01009393 430.35998845 C10.10405723 430.36446897 -1.80186465 430.38201559 -13.70786643 430.41098905 C-22.90796257 430.43260109 -32.10802641 430.44269249 -41.30814767 430.44402957 C-46.80416795 430.445078 -52.30008034 430.45099396 -57.79607391 430.46884918 C-62.96708062 430.48532139 -68.13789823 430.48748944 -73.30892181 430.47871017 C-75.20558173 430.47793933 -77.10225177 430.48228878 -78.99888611 430.49216843 C-81.59109622 430.50487806 -84.18263565 430.49901654 -86.77484131 430.48858643 C-87.89679858 430.50067103 -87.89679858 430.50067103 -89.04142165 430.51299977 C-95.59407107 430.4514709 -100.14021456 429.00646859 -104.92578125 424.43359375 C-108.95852781 418.32686325 -109.41143678 411.98200547 -109.34033203 404.86914062 C-109.34062408 404.08768677 -109.34091614 403.30623291 -109.34121704 402.50109863 C-109.3398363 399.94722953 -109.32433505 397.39366116 -109.30859375 394.83984375 C-109.30485914 393.0576595 -109.30201429 391.27547318 -109.30001831 389.49328613 C-109.2924171 384.82440426 -109.2727991 380.1556487 -109.25061035 375.48681641 C-109.23007593 370.71388456 -109.22100041 365.94093212 -109.2109375 361.16796875 C-109.18954962 351.81895521 -109.15545649 342.47003502 -109.11328125 333.12109375 C-110.32972321 333.02926315 -110.32972321 333.02926315 -111.57073975 332.93557739 C-112.64148743 332.85129486 -113.71223511 332.76701233 -114.81542969 332.68017578 C-116.40312164 332.55740768 -116.40312164 332.55740768 -118.02288818 332.43215942 C-122.26005328 332.00566461 -126.26256444 331.1177029 -130.36328125 329.99609375 C-131.57516113 329.66786621 -131.57516113 329.66786621 -132.81152344 329.33300781 C-152.95162492 323.63625883 -169.78361388 313.18166137 -185.11328125 299.12109375 C-186.12455078 298.23357422 -186.12455078 298.23357422 -187.15625 297.328125 C-201.77607752 283.81954328 -211.98312304 264.11273826 -217.11328125 245.12109375 C-217.59087891 243.41953125 -217.59087891 243.41953125 -218.078125 241.68359375 C-225.52875844 209.82097702 -218.78694242 175.73363257 -201.96411133 148.0222168 C-192.34142773 132.75505466 -180.54576495 119.00875689 -166.11328125 108.12109375 C-165.3140625 107.5178125 -164.51484375 106.91453125 -163.69140625 106.29296875 C-159.04008547 102.91848113 -154.20208491 99.88759711 -149.23828125 96.99609375 C-148.64692383 96.65151123 -148.05556641 96.30692871 -147.44628906 95.9519043 C-143.57936623 93.768981 -139.75376528 92.2669187 -135.55078125 90.87109375 C-132.15945064 89.51993037 -130.53155354 88.78565836 -128.57421875 85.67578125 C-127.7844276 83.6610079 -127.05151796 81.62330387 -126.3671875 79.5703125 C-122.35824048 68.54258596 -114.78486411 58.8333435 -107.11328125 50.12109375 C-106.38238281 49.26902344 -105.65148437 48.41695312 -104.8984375 47.5390625 C-96.11872936 37.49408886 -86.35794367 29.27229094 -75.11328125 22.12109375 C-74.22842041 21.55624268 -74.22842041 21.55624268 -73.32568359 20.97998047 C-51.03999199 7.01491617 -26.05529011 1.0134429 0 0 Z M-79.8125 68.44140625 C-90.15312503 80.4849865 -97.33615463 93.66506958 -102.77734375 108.59765625 C-105.83897679 114.38074089 -111.2049011 116.14679709 -116.98828125 118.30859375 C-145.41311142 129.47450069 -167.90798444 150.64406876 -180.6171875 178.40625 C-189.50839065 200.24941476 -190.41913325 223.98858605 -182.11328125 246.12109375 C-177.86998483 255.87991823 -172.29913576 264.25087214 -165.11328125 272.12109375 C-164.45457031 272.84941406 -163.79585937 273.57773437 -163.1171875 274.328125 C-148.88631627 289.30346837 -128.52072198 298.42594734 -108.11328125 300.12109375 C-108.12375488 299.29496582 -108.13422852 298.46883789 -108.14501953 297.61767578 C-108.17943298 294.50521913 -108.20433963 291.39286058 -108.22314453 288.28027344 C-108.23795716 286.28964738 -108.26339117 284.29910938 -108.2890625 282.30859375 C-108.38159915 263.98633741 -108.38159915 263.98633741 -103.73828125 258.12109375 C-98.78074365 254.34392225 -95.03426071 253.80022601 -88.84765625 253.70703125 C-87.65755951 253.67798203 -87.65755951 253.67798203 -86.44342041 253.64834595 C-83.91681568 253.58871014 -81.390165 253.54222932 -78.86328125 253.49609375 C-77.14711588 253.4578992 -75.43096938 253.4188466 -73.71484375 253.37890625 C-69.51447669 253.28302189 -65.31401991 253.19893208 -61.11328125 253.12109375 C-60.52461138 249.25139024 -59.99906718 245.46974036 -59.9375 241.5546875 C-59.43674572 222.15674287 -54.95799648 205.52425127 -41.11328125 191.12109375 C-34.14605084 185.01136862 -26.83121781 180.28336092 -18.11328125 177.12109375 C-17.23800781 176.80269531 -16.36273438 176.48429688 -15.4609375 176.15625 C0.75909149 171.21971944 19.33507832 173.06208318 34.34765625 180.70385742 C49.46141731 188.98053907 60.20018059 202.78328377 65.43579102 219.15893555 C68.35966432 230.08050028 67.82389369 241.89634993 67.88671875 253.12109375 C69.52870239 253.14296753 69.52870239 253.14296753 71.20385742 253.1652832 C75.2762878 253.22338114 79.3481719 253.30061302 83.42016602 253.38354492 C85.1804923 253.41674029 86.94092363 253.44478899 88.70141602 253.4675293 C91.236294 253.50117495 93.77021398 253.55349435 96.3046875 253.609375 C97.08821091 253.61576492 97.87173431 253.62215485 98.67900085 253.6287384 C103.29345039 253.75210464 106.11683071 254.47137583 109.88671875 257.12109375 C110.54671875 257.12109375 111.20671875 257.12109375 111.88671875 257.12109375 C114.5756712 262.31973516 115.08118711 266.71574422 115.203125 272.5078125 C115.2239061 273.32482132 115.24468719 274.14183014 115.26609802 274.9835968 C115.33144954 277.59184409 115.39041148 280.2001915 115.44921875 282.80859375 C115.49241767 284.57748429 115.5360324 286.34636472 115.58007812 288.11523438 C115.68711618 292.45041838 115.78842419 296.78570304 115.88671875 301.12109375 C138.2455491 301.57814492 158.23528214 293.68747164 174.60473633 278.44604492 C187.7947237 265.67128588 194.80159402 250.00251967 195.84765625 231.83203125 C196.07258139 210.46414324 186.4599514 190.38012558 171.88671875 175.12109375 C157.7194273 161.63656333 139.7495621 153.46234917 120.65625 149.859375 C116.52810381 148.75892418 113.78602518 147.40328145 111.3034668 143.86376953 C109.79867446 140.95064924 109.29920899 138.74822195 108.89453125 135.5078125 C108.74983398 134.43257324 108.60513672 133.35733398 108.45605469 132.24951172 C108.30942383 131.11400879 108.16279297 129.97850586 108.01171875 128.80859375 C103.73968858 98.94965456 90.99072414 73.27735573 66.77294922 54.48046875 C21.21862697 21.55414137 -41.12276621 27.73590482 -79.8125 68.44140625 Z M-12.11328125 210.12109375 C-12.7371875 210.47171875 -13.36109375 210.82234375 -14.00390625 211.18359375 C-20.57819797 215.29967204 -24.53215265 221.9332872 -27.11328125 229.12109375 C-28.63783535 237.20123046 -28.11328125 244.69296586 -28.11328125 253.12109375 C-6.99328125 253.12109375 14.12671875 253.12109375 35.88671875 253.12109375 C36.21819965 231.78116061 36.21819965 231.78116061 25.88671875 214.12109375 C14.5318176 205.41494583 0.71531745 202.32130574 -12.11328125 210.12109375 Z M-76.11328125 286.12109375 C-76.11328125 322.75109375 -76.11328125 359.38109375 -76.11328125 397.12109375 C-23.31328125 397.12109375 29.48671875 397.12109375 83.88671875 397.12109375 C83.88671875 360.49109375 83.88671875 323.86109375 83.88671875 286.12109375 C31.08671875 286.12109375 -21.71328125 286.12109375 -76.11328125 286.12109375 Z " fill="#000000" transform="translate(252.11328125,40.87890625)"/>
</svg>
