<?xml version="1.0" encoding="UTF-8"?>
<svg version="1.1" xmlns="http://www.w3.org/2000/svg" width="512" height="512">
<path d="M0 0 C0.845625 0.01546875 1.69125 0.0309375 2.5625 0.046875 C3.8309375 0.02367187 3.8309375 0.02367187 5.125 0 C8.64531262 1.15087143 9.85948299 3.68492391 11.5625 6.796875 C12.74347446 9.51543311 13.69617687 12.29197113 14.63671875 15.1015625 C14.91747253 15.91616943 15.19822632 16.73077637 15.48748779 17.57006836 C16.09588557 19.33821793 16.70041263 21.10770311 17.30148315 22.87835693 C18.60721258 26.72391726 19.93224403 30.56274404 21.2559967 34.40213013 C21.95611429 36.43327682 22.65526566 38.46475679 23.35350037 40.49655151 C27.16495896 51.58009795 31.07856996 62.62686055 35 73.671875 C35.62403057 75.43209753 36.24797446 77.19235079 36.87182617 78.95263672 C44.41910883 100.23981948 51.99491189 121.51690492 59.5625 142.796875 C60.27849176 142.79834156 60.99448353 142.79980812 61.73217201 142.80131912 C79.15918115 142.83838149 96.5859778 142.89738853 114.01282692 142.98077774 C122.44035789 143.02057591 130.86779537 143.05296442 139.29541016 143.06787109 C146.64149902 143.08088362 153.98738225 143.10783794 161.33335531 143.15148807 C165.22252771 143.17411206 169.11144641 143.18978513 173.00069046 143.18875885 C176.66324631 143.18801277 180.32524115 143.20594165 183.98765182 143.23804283 C185.96886046 143.2505907 187.95016324 143.24347368 189.93139648 143.23573303 C200.87064535 143.3640351 200.87064535 143.3640351 205.5625 147.796875 C207.66312755 150.94781633 207.90563286 152.0193116 208 155.671875 C208.03996094 156.51492187 208.07992188 157.35796875 208.12109375 158.2265625 C207.13222502 162.77674171 203.47375036 165.18890359 199.72949219 167.68701172 C198.69985352 168.27756348 197.67021484 168.86811523 196.609375 169.4765625 C196.04112 169.80580719 195.47286499 170.13505188 194.88739014 170.47427368 C193.66802314 171.17970062 192.44662576 171.88162773 191.22338867 172.58032227 C188.60666943 174.07506504 185.99994533 175.58686047 183.39257812 177.09783936 C182.05452379 177.87313578 180.71597911 178.64758655 179.37695312 179.42120361 C173.2295156 182.97613264 167.14092871 186.62530439 161.0625 190.296875 C149.0709464 197.52108539 137.00319455 204.61078385 124.91342163 211.66886902 C121.36571338 213.74062508 117.82196348 215.81892724 114.28199768 217.90388489 C111.54352292 219.51635849 108.80272119 221.12487157 106.0625 222.734375 C105.0717749 223.31968994 104.0810498 223.90500488 103.06030273 224.50805664 C102.14321533 225.04551514 101.22612793 225.58297363 100.28125 226.13671875 C99.48654297 226.60456787 98.69183594 227.07241699 97.87304688 227.55444336 C95.49174444 228.83492181 93.08972981 229.84132919 90.5625 230.796875 C91.58075994 233.15218142 92.60211206 235.50607844 93.625 237.859375 C93.90021484 238.49681641 94.17542969 239.13425781 94.45898438 239.79101562 C99.19627908 250.671176 104.35175797 261.36766267 109.43917847 272.0871582 C116.69604987 287.37895821 123.84813868 302.71074 130.81958008 318.13476562 C135.35484913 328.16526663 139.95738296 338.16324899 144.58407593 348.15188599 C146.85857803 353.06791821 149.12266172 357.98875638 151.3865509 362.90968323 C153.39929023 367.28216829 155.4248877 371.64825715 157.4644928 376.00827026 C158.88552537 379.05669186 160.28485794 382.11494982 161.6875 385.171875 C162.44196411 386.76491455 162.44196411 386.76491455 163.21166992 388.39013672 C166.00409524 394.54099916 167.22893617 399.03254789 166.5625 405.796875 C165.1875 408.859375 165.1875 408.859375 162.5625 410.796875 C156.66723464 411.94517017 152.45637218 411.13011601 147.29614258 407.98950195 C144.55750469 406.10550729 142.21081467 403.9049994 139.8125 401.609375 C135.10896578 397.1728342 130.24951552 393.03341185 125.2109375 388.9765625 C122.58974881 386.81930101 120.07095719 384.583765 117.5625 382.296875 C114.24260514 379.27405079 110.86485888 376.37175339 107.375 373.546875 C100.9519692 368.34340701 94.73171517 362.91788242 88.50195312 357.48632812 C85.36093879 354.75019781 82.21149819 352.02380851 79.0625 349.296875 C75.26118975 346.00505974 71.46209378 342.71083514 67.671875 339.40625 C61.23157634 333.7972454 54.74462946 328.28034168 48.10546875 322.90625 C44.67102621 320.05740365 41.39114204 317.05209306 38.09375 314.046875 C35.4740519 311.71825447 32.7873469 309.50124553 30.0625 307.296875 C25.61339827 303.69760169 21.3610037 299.93634702 17.1328125 296.08203125 C12.73287519 292.17023288 8.15003069 288.48608694 3.5625 284.796875 C-5.01252594 288.60578187 -12.04645783 296.29491252 -18.90625 302.546875 C-22.41549486 305.66620376 -26.06912123 308.59436633 -29.71875 311.546875 C-32.35897729 313.73189069 -34.9047972 315.98858891 -37.4375 318.296875 C-40.75739486 321.31969921 -44.13514112 324.22199661 -47.625 327.046875 C-54.0463994 332.24902135 -60.26536858 337.67296168 -66.49365234 343.10302734 C-69.65792696 345.86034175 -72.82861895 348.61023998 -76 351.359375 C-76.62028076 351.89715576 -77.24056152 352.43493652 -77.87963867 352.98901367 C-83.80171442 358.11952101 -89.74994913 363.21920454 -95.70361328 368.31298828 C-98.61644046 370.80583024 -101.52684061 373.30150266 -104.4375 375.796875 C-105.60415518 376.7968884 -106.77082184 377.79688841 -107.9375 378.796875 C-108.515 379.291875 -109.0925 379.786875 -109.6875 380.296875 C-112.3125 382.546875 -112.3125 382.546875 -114.9375 384.796875 C-115.5154834 385.29243896 -116.0934668 385.78800293 -116.68896484 386.29858398 C-117.85015101 387.29358531 -119.01193063 388.28789449 -120.17431641 389.28149414 C-123.18019423 391.85247721 -126.17331647 394.4364261 -129.1484375 397.04296875 C-146.01084184 411.78083512 -146.01084184 411.78083512 -155.23046875 411.28515625 C-157.4375 410.796875 -157.4375 410.796875 -160 408.609375 C-161.76887469 405.14853321 -162.78501889 402.41396594 -161.95239258 398.53955078 C-158.76264703 390.25673075 -155.06052442 382.22701286 -151.30252075 374.19024658 C-149.26816884 369.83936442 -147.2486619 365.48158629 -145.2265625 361.125 C-144.61346977 359.80582077 -144.61346977 359.80582077 -143.98799133 358.45999146 C-140.27682673 350.46906054 -136.63115293 342.4493945 -133 334.421875 C-126.94490086 321.04572481 -120.77566559 307.72414891 -114.58657837 294.4095459 C-108.83300525 282.02665193 -103.17025523 269.60808176 -97.61181641 257.13647461 C-89.43583003 238.79353506 -89.43583003 238.79353506 -85.4375 230.796875 C-86.54170288 230.37498901 -86.54170288 230.37498901 -87.66821289 229.94458008 C-90.15909756 228.91225628 -92.41102624 227.77368048 -94.74609375 226.43359375 C-95.56352051 225.96598633 -96.38094727 225.49837891 -97.22314453 225.01660156 C-98.09825684 224.5109668 -98.97336914 224.00533203 -99.875 223.484375 C-100.8016748 222.95166992 -101.72834961 222.41896484 -102.68310547 221.87011719 C-111.97686296 216.51333125 -121.21173605 211.05780649 -130.43457031 205.58007812 C-134.78134458 202.99887168 -139.13088019 200.42233164 -143.48022461 197.84545898 C-145.78340831 196.48087016 -148.08628858 195.11577141 -150.38891602 193.75024414 C-155.72550694 190.58608425 -161.0640123 187.4253406 -166.41015625 184.27734375 C-175.19813572 179.10211625 -183.97190349 173.90585029 -192.6875 168.609375 C-193.44490479 168.15135498 -194.20230957 167.69333496 -194.98266602 167.22143555 C-200.19998246 164.03439254 -200.19998246 164.03439254 -202.4375 161.796875 C-203.13972047 156.72618995 -203.25204858 152.22233502 -200.6875 147.734375 C-196.7120868 144.31110252 -193.88023156 143.54656711 -188.64154053 143.5184021 C-186.86632019 143.50165688 -186.86632019 143.50165688 -185.05523682 143.48457336 C-183.76051453 143.48241318 -182.46579224 143.48025299 -181.13183594 143.47802734 C-179.75194716 143.4687272 -178.372064 143.4585584 -176.9921875 143.44758606 C-173.24875402 143.42028155 -169.50535819 143.40513535 -165.76185131 143.39215803 C-161.8486976 143.37652945 -157.93562078 143.34973836 -154.02252197 143.3241272 C-146.61366374 143.27733456 -139.20479105 143.24059281 -131.79586053 143.20745432 C-123.36057243 143.16923636 -114.92536155 143.11982535 -106.49013853 143.06947017 C-89.13931487 142.96614311 -71.78844652 142.87688523 -54.4375 142.796875 C-54.1102199 141.86620649 -54.1102199 141.86620649 -53.77632809 140.9167366 C-51.45478424 134.31525304 -49.13287489 127.71389812 -46.81077576 121.11260986 C-45.95023331 118.66610802 -45.08977666 116.219576 -44.22941589 113.77301025 C-37.28069135 94.01355101 -30.30762066 74.26284924 -23.29655552 54.52541924 C-20.45162683 46.51408112 -17.63160175 38.49502873 -14.8515625 30.4609375 C-14.03208979 28.10242544 -13.21204183 25.74411421 -12.39181519 23.38586426 C-11.65156606 21.24857792 -10.92044974 19.10832115 -10.18969727 16.96777344 C-9.74542098 15.6892909 -9.30070643 14.41096055 -8.85546875 13.1328125 C-8.48188232 12.04532715 -8.1082959 10.9578418 -7.72338867 9.83740234 C-4.13465214 1.3517132 -4.13465214 1.3517132 0 0 Z " fill="#000000" transform="translate(253.4375,50.203125)"/>
<path d="M0 0 C2.47949219 1.9777832 2.47949219 1.9777832 5.046875 4.55078125 C5.97371094 5.47697266 6.90054688 6.40316406 7.85546875 7.35742188 C8.33032715 7.84267334 8.80518555 8.3279248 9.29443359 8.82788086 C10.74714165 10.3095846 12.21764797 11.77168613 13.69140625 13.23242188 C21.70070478 21.31453221 21.70070478 21.31453221 22 25 C20.07855148 29.49494094 17.534752 31.21489437 13.3125 33.5 C12.72670166 33.82186279 12.14090332 34.14372559 11.53735352 34.4753418 C9.36530809 35.66367592 7.18251858 36.83101196 5 38 C2.97082225 39.0992791 0.942216 40.19961357 -1.0859375 41.30078125 C-4.29985179 43.04504055 -7.51491071 44.78689443 -10.73510742 46.51953125 C-11.73131104 47.05578125 -12.72751465 47.59203125 -13.75390625 48.14453125 C-14.64408447 48.62253174 -15.5342627 49.10053223 -16.45141602 49.59301758 C-18.20766738 50.56258139 -19.93420234 51.58730944 -21.63256836 52.6550293 C-24.65564451 54.37248073 -26.57497747 54.44674207 -30 54 C-31.875 52.875 -31.875 52.875 -33 51 C-33.37301025 46.46618682 -32.74893451 43.83265651 -30.4375 39.9453125 C-29.89158203 39.0080835 -29.34566406 38.07085449 -28.78320312 37.10522461 C-28.19474609 36.12175049 -27.60628906 35.13827637 -27 34.125 C-25.79877177 32.06833685 -24.60086309 30.00973134 -23.40625 27.94921875 C-22.82101562 26.94036621 -22.23578125 25.93151367 -21.6328125 24.89208984 C-19.08535726 20.37995546 -16.80314498 15.74958796 -14.625 11.04931641 C-11.54796591 4.58718867 -7.97809101 -2.51143355 0 0 Z " fill="#000000" transform="translate(392,99)"/>
<path d="M0 0 C7.49053548 2.89407053 11.23676554 13.45168544 14.625 20.1875 C18.63110053 28.04894055 22.77018759 35.72511944 27.421875 43.22265625 C28.92779096 46.4426589 29.09993091 48.54819387 28.75 52.0625 C27.625 53.9375 27.625 53.9375 25.75 55.0625 C19.39685028 56.10465705 14.80101853 52.73262888 9.5 49.6875 C8.53650635 49.14601318 7.5730127 48.60452637 6.58032227 48.04663086 C4.59873995 46.93281626 2.61965376 45.81454936 0.64306641 44.69189453 C-2.06219792 43.1682714 -4.78399747 41.68326206 -7.51953125 40.21484375 C-8.33067383 39.77640137 -9.14181641 39.33795898 -9.97753906 38.88623047 C-11.49096302 38.06875366 -13.00709168 37.25625669 -14.52636719 36.44970703 C-19.63716301 33.65334751 -24.323682 30.84145401 -26.25 25.0625 C-24.39017397 21.228145 -21.87427052 18.44022515 -18.87109375 15.453125 C-18.03255859 14.61652344 -17.19402344 13.77992187 -16.33007812 12.91796875 C-15.45802734 12.05816406 -14.58597656 11.19835937 -13.6875 10.3125 C-12.81158203 9.43722656 -11.93566406 8.56195313 -11.03320312 7.66015625 C-3.41513051 0.09486474 -3.41513051 0.09486474 0 0 Z " fill="#000000" transform="translate(124.25,97.9375)"/>
<path d="M0 0 C2.64 0 5.28 0 8 0 C10.83119335 5.33701799 12.90243333 10.34856042 14.39453125 16.19140625 C14.59100754 16.94034653 14.78748383 17.6892868 14.98991394 18.46092224 C15.39850336 20.03029544 15.80245597 21.60088271 16.2019043 23.17260742 C16.81296155 25.56430653 17.44759105 27.94891845 18.08398438 30.33398438 C18.48060721 31.86942028 18.87583774 33.40521664 19.26953125 34.94140625 C19.45900833 35.64576309 19.64848541 36.35011993 19.84370422 37.07582092 C21.02374218 41.83101706 20.9564678 45.28754346 20 50 C16.48405109 51.58627265 13.72599092 52.25556644 9.875 52.265625 C8.92109375 52.26820313 7.9671875 52.27078125 6.984375 52.2734375 C5.99953125 52.26570313 5.0146875 52.25796875 4 52.25 C2.52273437 52.26160156 2.52273437 52.26160156 1.015625 52.2734375 C-0.41523438 52.26957031 -0.41523438 52.26957031 -1.875 52.265625 C-2.73867187 52.26336914 -3.60234375 52.26111328 -4.4921875 52.25878906 C-7.28542746 51.97054584 -9.45055791 51.15021872 -12 50 C-13.15071199 44.36054115 -12.70728324 40.22194152 -11.26953125 34.6875 C-10.98199226 33.5286731 -10.98199226 33.5286731 -10.68864441 32.34643555 C-10.28202618 30.721235 -9.8690148 29.09762197 -9.44995117 27.47558594 C-8.81540003 25.01126245 -8.20613778 22.54166375 -7.59960938 20.0703125 C-7.19941469 18.48399633 -6.79776928 16.89804529 -6.39453125 15.3125 C-6.21517532 14.58313232 -6.0358194 13.85376465 -5.85102844 13.10229492 C-4.56490101 8.20238458 -2.67378332 4.30684084 0 0 Z " fill="#000000" transform="translate(252,384)"/>
<path d="M0 0 C4.10385957 0.39362855 7.97479825 1.18128465 11.94946289 2.22973633 C13.07855324 2.5187104 13.07855324 2.5187104 14.23045349 2.81352234 C15.81224703 3.22054523 17.39297486 3.63173028 18.97265625 4.046875 C21.37681629 4.67731867 23.78474667 5.29134301 26.19360352 5.90356445 C27.73747538 6.30298201 29.28110399 6.70334124 30.82446289 7.10473633 C31.53711807 7.28611649 32.24977325 7.46749664 32.98402405 7.65437317 C42.68446056 10.23035899 42.68446056 10.23035899 45.82055664 13.36645508 C46.25805664 16.67895508 46.25805664 16.67895508 45.82055664 20.36645508 C41.56965203 23.86358343 37.15356189 25.41393561 31.89477539 26.72583008 C31.14774857 26.91993469 30.40072174 27.11403931 29.63105774 27.31402588 C28.0583796 27.71946938 26.48421438 28.11918374 24.90869141 28.51342773 C22.521178 29.11315906 20.14072585 29.73644583 17.76000977 30.36254883 C16.22196388 30.75590808 14.68356253 31.1478806 13.14477539 31.53833008 C12.44446701 31.72264587 11.74415863 31.90696167 11.02262878 32.09686279 C5.85784099 33.36610025 1.1379232 33.51911611 -4.17944336 33.36645508 C-7.04377772 28.02689575 -6.50878221 22.82740649 -6.49194336 16.86645508 C-6.50805664 15.72563477 -6.52416992 14.58481445 -6.54077148 13.40942383 C-6.54141602 12.31243164 -6.54206055 11.21543945 -6.54272461 10.08520508 C-6.54570557 9.08424805 -6.54868652 8.08329102 -6.55175781 7.05200195 C-5.90649914 2.39767709 -4.79850566 0.55306435 0 0 Z " fill="#000000" transform="translate(82.179443359375,264.633544921875)"/>
<path d="M0 0 C3.06175925 3.08248944 3.3840494 5.46261155 3.3984375 9.71875 C3.40423828 11.36423828 3.40423828 11.36423828 3.41015625 13.04296875 C3.39855469 14.18378906 3.38695312 15.32460938 3.375 16.5 C3.38660156 17.64082031 3.39820313 18.78164063 3.41015625 19.95703125 C3.40628906 21.05402344 3.40242188 22.15101563 3.3984375 23.28125 C3.39505371 24.28220703 3.39166992 25.28316406 3.38818359 26.31445312 C2.91928643 29.55839574 2.53852119 30.88885407 0 33 C-5.71622635 33.56683568 -10.71192776 32.61266592 -16.2265625 31.171875 C-17.35353043 30.88645844 -17.35353043 30.88645844 -18.50326538 30.59527588 C-20.07925532 30.19315257 -21.65401128 29.78616418 -23.22753906 29.37451172 C-25.62191505 28.7508036 -28.02125704 28.14995429 -30.421875 27.55078125 C-31.96128894 27.15501032 -33.50036421 26.75791922 -35.0390625 26.359375 C-35.74858063 26.18315613 -36.45809875 26.00693726 -37.18911743 25.82537842 C-41.75846156 24.60667741 -45.32812658 22.99816754 -49 20 C-49.625 16.4375 -49.625 16.4375 -49 13 C-46.09187832 10.22666959 -43.18595792 9.2823711 -39.34375 8.28125 C-38.23773438 7.98863281 -37.13171875 7.69601562 -35.9921875 7.39453125 C-34.26355469 6.95173828 -34.26355469 6.95173828 -32.5 6.5 C-31.37851562 6.20480469 -30.25703125 5.90960938 -29.1015625 5.60546875 C-25.73764651 4.72370324 -22.36968278 3.85943991 -19 3 C-17.88568604 2.7124585 -16.77137207 2.42491699 -15.62329102 2.12866211 C-14.56295654 1.85803955 -13.50262207 1.58741699 -12.41015625 1.30859375 C-11.465354 1.06681396 -10.52055176 0.82503418 -9.54711914 0.57592773 C-6.10998891 -0.20123993 -3.49713435 -0.5208498 0 0 Z " fill="#000000" transform="translate(433,265)"/>
</svg>
