<?xml version="1.0" encoding="UTF-8"?>
<svg version="1.1" xmlns="http://www.w3.org/2000/svg" width="512" height="512">
<path d="M0 0 C0.67338409 0.26073303 1.34676819 0.52146606 2.04055786 0.7901001 C11.64144074 4.5680509 21.07956585 8.7533022 30.52896118 12.8913269 C36.43878914 15.47899335 42.35470297 18.05269546 48.26953125 20.62890625 C49.45510117 21.14574478 50.64067108 21.66258331 51.86216736 22.19508362 C62.18842985 26.69501103 72.53384302 31.14896625 82.890625 35.578125 C84.56420909 36.29418921 86.23779307 37.01025367 87.91137695 37.72631836 C90.50186653 38.83449241 93.09243324 39.94248521 95.68315125 41.05012512 C102.92583738 44.14674989 110.16634836 47.2484337 117.40625 50.3515625 C118.5651474 50.84821915 119.7240448 51.34487579 120.9180603 51.85658264 C126.86149658 54.40389734 132.80443505 56.95236467 138.74658203 59.50268555 C149.43739606 64.08974397 160.13104382 68.66934113 170.84321594 73.2063446 C175.40342484 75.13820411 179.96129157 77.07555444 184.51901245 79.01327515 C186.66584443 79.92405174 188.81387921 80.83199888 190.96316528 81.73696899 C193.92510022 82.98427293 196.8828297 84.24108387 199.83984375 85.5 C200.70795685 85.86246323 201.57606995 86.22492645 202.4704895 86.59837341 C207.53172198 88.76658794 212.11096883 90.83454552 215.36962891 95.48291016 C216.89466531 100.12738698 216.44991537 105.16141914 216.44873047 110.00292969 C216.45309551 112.0021201 216.4901103 114.00115157 216.52734375 116 C216.53121094 117.27101563 216.53507812 118.54203125 216.5390625 119.8515625 C216.54728027 121.00962402 216.55549805 122.16768555 216.56396484 123.36083984 C215.8422213 128.23315282 213.82166186 131.31812892 209.9042291 134.28955418 C206.40114457 135.96426789 203.37669021 136.05781864 199.57676792 136.02094173 C198.4514187 136.02793161 198.4514187 136.02793161 197.30333516 136.0350627 C194.78111251 136.04704493 192.25942534 136.03760501 189.73719788 136.02830505 C187.91399365 136.03247656 186.09079202 136.03795307 184.26759523 136.04462487 C179.25092854 136.05912221 174.23442553 136.05482138 169.21774971 136.04745805 C163.81002185 136.04273928 158.40233006 136.05522476 152.99461365 136.06547546 C142.39799065 136.08269406 131.80142688 136.08349715 121.20479352 136.07826256 C112.59416385 136.0742254 103.98355172 136.07565902 95.3729229 136.08101082 C94.14862302 136.08175924 92.92432314 136.08250766 91.66292326 136.08327876 C89.17597131 136.0848102 86.68901937 136.08634855 84.20206743 136.08789373 C60.86652364 136.10162979 37.53101335 136.09617326 14.19547033 136.08470852 C-7.16559745 136.07477448 -28.52657066 136.08771783 -49.8876261 136.11164271 C-71.80780294 136.13600934 -93.72793941 136.14564761 -115.64812952 136.13898998 C-127.96001965 136.13549241 -140.27184315 136.13776532 -152.58372307 136.15524101 C-163.06434747 136.16993253 -173.54485834 136.17063842 -184.02548044 136.1531701 C-189.37505855 136.14463265 -194.72443357 136.14257737 -200.07400131 136.15782166 C-204.96861793 136.17159709 -209.86285609 136.16699809 -214.75745041 136.14758242 C-216.53061153 136.14380006 -218.30380245 136.14680823 -220.07693719 136.15719407 C-222.4833098 136.17028962 -224.88836179 136.15884833 -227.29467678 136.14119625 C-228.33257083 136.15567202 -228.33257083 136.15567202 -229.39143243 136.17044023 C-234.32452877 136.09589948 -237.10717497 134.69772015 -240.921875 131.640625 C-245.45701739 125.90713609 -244.39699463 119.17643704 -244.359375 112.203125 C-244.37935547 110.89279297 -244.39933594 109.58246094 -244.41992188 108.23242188 C-244.41927734 106.96591797 -244.41863281 105.69941406 -244.41796875 104.39453125 C-244.41982178 103.24283447 -244.4216748 102.0911377 -244.42358398 100.90454102 C-243.81007888 96.91332457 -242.89434052 94.34283087 -239.921875 91.640625 C-236.06641893 89.30616914 -232.0405538 87.46125836 -227.921875 85.640625 C-226.98102051 85.21979645 -226.04016602 84.7989679 -225.07080078 84.36538696 C-222.21936478 83.11392548 -219.35498135 81.8982091 -216.484375 80.69140625 C-214.89255905 80.01637054 -214.89255905 80.01637054 -213.26858521 79.32769775 C-210.99959043 78.36585538 -208.72988881 77.40567899 -206.45953369 76.447052 C-200.99601905 74.13985033 -195.53700391 71.82205036 -190.07785416 69.50454521 C-188.22478571 68.71799583 -186.37153766 67.93187071 -184.51828003 67.14576721 C-173.67479285 62.54341725 -162.85644254 57.88447266 -152.046875 53.203125 C-127.19622696 42.44833229 -102.30879939 31.77972342 -77.41168213 21.13299561 C-75.08247174 20.13693909 -72.75332964 19.1407229 -70.42425537 18.14434814 C-63.74902646 15.28879125 -57.07266035 12.43592543 -50.3944397 9.58737183 C-48.34818953 8.71422633 -46.3022643 7.84031888 -44.25668335 6.96560669 C-41.44553379 5.7638345 -38.63311058 4.56509519 -35.8203125 3.3671875 C-35.00112839 3.01628555 -34.18194427 2.66538361 -33.3379364 2.30384827 C-21.89313389 -2.55878046 -11.92396974 -4.61943178 0 0 Z M-35.7109375 53.34375 C-40.98888196 59.11568926 -43.89419335 65.73751525 -43.921875 73.640625 C-43.25723954 83.39342793 -39.67241004 90.42659288 -32.484375 97.015625 C-26.17228311 102.01269774 -19.25221928 104.00387809 -11.28515625 103.4609375 C-1.99473744 102.19111736 5.0882175 97.85513154 10.859375 90.46484375 C15.77091663 83.11327343 15.95382299 75.30804487 15.078125 66.640625 C13.16894011 59.01524962 8.23159524 52.41189736 1.71875 48.06640625 C-11.53475754 40.883993 -24.82559188 42.98128124 -35.7109375 53.34375 Z " fill="#000000" transform="translate(269.921875,30.359375)"/>
<path d="M0 0 C1.77247806 -0.00548624 3.54494961 -0.01359473 5.3174051 -0.02408731 C10.17089921 -0.04520556 15.02365366 -0.02904032 19.87711525 -0.00658631 C25.11780061 0.01112944 30.35839084 -0.00579833 35.59907532 -0.01831055 C45.8582117 -0.03727148 56.11706641 -0.02410066 66.37618186 0.00021534 C78.32380044 0.0274772 90.27135217 0.02417775 102.21899395 0.01994868 C123.53548858 0.01357124 144.85184947 0.03689184 166.16830444 0.07608032 C186.85291618 0.11409722 207.53737121 0.12825264 228.22201538 0.11709595 C250.7492506 0.10498135 273.27641694 0.10533195 295.80364645 0.12806761 C298.20545602 0.13048219 300.60726559 0.13289416 303.00907516 0.1353035 C304.1908029 0.13651057 305.37253063 0.13771765 306.59006829 0.13896131 C314.91857014 0.14672046 323.24704635 0.14593209 331.57555008 0.14213181 C341.7233421 0.13788838 351.87099686 0.14833263 362.01875021 0.17735891 C367.19645307 0.19184929 372.37395601 0.19999892 377.5516758 0.19087219 C382.29140377 0.18272068 387.0307189 0.19304578 391.77038424 0.21812434 C393.48487693 0.22398097 395.19940855 0.22311306 396.91389127 0.21483819 C414.40578255 0.13807951 414.40578255 0.13807951 421.84213257 6.78359985 C422.38998413 7.45262329 422.93783569 8.12164673 423.50228882 8.8109436 C424.06818726 9.48254517 424.63408569 10.15414673 425.21713257 10.84609985 C428.87598594 16.01091606 427.74904597 22.70377925 427.75228882 28.7484436 C427.76453491 29.94984985 427.77678101 31.1512561 427.78939819 32.3890686 C427.79133179 33.53891235 427.79326538 34.6887561 427.79525757 35.8734436 C427.79936646 36.92789673 427.80347534 37.98234985 427.80770874 39.0687561 C427.56478882 41.7484436 427.56478882 41.7484436 425.56478882 44.7484436 C423.02878277 45.04630625 420.7359449 45.14513413 418.19717216 45.11758709 C417.03886303 45.12277939 417.03886303 45.12277939 415.85715371 45.12807658 C413.24216457 45.13608415 410.62771791 45.1225038 408.01275635 45.10920715 C406.13011994 45.11051409 404.24748407 45.11313843 402.36485112 45.11697465 C397.17018302 45.12371365 391.97569889 45.11164023 386.78105426 45.09664047 C381.18730833 45.08373335 375.59357351 45.08806578 369.99981689 45.09034729 C360.30118204 45.09192341 350.60260755 45.08247891 340.90398788 45.06563377 C326.88127141 45.04129409 312.85858425 45.03344367 298.83584894 45.0296698 C276.08711065 45.0230974 253.33841005 45.00314057 230.58969116 44.97476196 C208.48617724 44.94722001 186.38267192 44.92596362 164.27914429 44.91323853 C163.59811784 44.91284395 162.9170914 44.91244937 162.21542779 44.91204283 C155.37643673 44.90808736 148.5374456 44.9042599 141.69845441 44.90052626 C84.32054344 44.86918961 26.94266762 44.81623854 -30.43521118 44.7484436 C-32.98493574 39.97345126 -33.8891613 36.37226204 -33.74771118 30.9984436 C-33.73643188 30.29542114 -33.72515259 29.59239868 -33.71353149 28.86807251 C-33.50189833 20.7796015 -33.08435545 12.9625023 -27.43521118 6.7484436 C-19.09775386 -0.37901615 -10.35095781 -0.09669444 0 0 Z " fill="#000000" transform="translate(58.435211181640625,441.2515563964844)"/>
<path d="M0 0 C54.12 0 108.24 0 164 0 C164 54.12 164 108.24 164 164 C152.12 164 140.24 164 128 164 C127.95101562 159.09769531 127.90203125 154.19539062 127.8515625 149.14453125 C127.81612061 146.01365292 127.78012909 142.88279974 127.7421875 139.75195312 C127.68219553 134.79732121 127.62409049 129.84272394 127.578125 124.88793945 C127.54088184 120.8872179 127.49442426 116.88669417 127.44193649 112.88614464 C127.42359737 111.37020066 127.40841647 109.85421462 127.39665604 108.33820534 C127.3210308 90.30074862 127.3210308 90.30074862 121.625 73.4375 C121.03976562 72.30183594 120.45453125 71.16617188 119.8515625 69.99609375 C118.12967806 67.2098377 116.331275 65.26452043 114 63 C114 62.34 114 61.68 114 61 C113.484375 60.773125 112.96875 60.54625 112.4375 60.3125 C110 59 110 59 107 56.625 C97.80918241 49.97297356 85.95429783 48.14152711 74.9375 49.6875 C67.03236737 51.19952152 60.48829177 54.24191937 54 59 C52.5459375 60.0209375 52.5459375 60.0209375 51.0625 61.0625 C42.56910925 68.3265842 38.32084362 79.29559321 37.20315552 90.13693237 C36.748131 96.54958593 36.75448749 102.98394881 36.68359375 109.41015625 C36.66298607 110.98913571 36.64198871 112.56811012 36.62062073 114.14707947 C36.5657934 118.27497233 36.51621301 122.40291168 36.46777344 126.53088379 C36.40836713 131.49873616 36.34235866 136.46650478 36.27747345 141.43428802 C36.17995995 148.95614027 36.09076551 156.47804968 36 164 C24.12 164 12.24 164 0 164 C0 109.88 0 55.76 0 0 Z " fill="#000000" transform="translate(174,218)"/>
<path d="M0 0 C1.50177123 -0.00417496 3.0035393 -0.00965337 4.50530154 -0.01631981 C8.62427708 -0.03077186 12.74305248 -0.02653048 16.86203897 -0.019153 C21.3072557 -0.01442305 25.75242902 -0.02692962 30.19763184 -0.03717041 C38.90299945 -0.05436695 47.60829491 -0.05519667 56.3136751 -0.04995751 C63.3891531 -0.04591629 70.46460977 -0.04735879 77.54008675 -0.05270576 C79.05054666 -0.0538284 79.05054666 -0.0538284 80.59152092 -0.05497371 C82.63717234 -0.05650518 84.68282375 -0.05804353 86.72847516 -0.05958868 C105.91226038 -0.07331673 125.09600481 -0.06787381 144.2797891 -0.05640347 C161.83059943 -0.04647001 179.38130436 -0.05941317 196.93209844 -0.08333766 C214.95380742 -0.10771899 232.97546729 -0.11733895 250.99719244 -0.11068493 C261.11482754 -0.10719066 271.23238156 -0.10943853 281.3500042 -0.12693596 C289.96257947 -0.14164582 298.57501657 -0.14230926 307.1875891 -0.12486505 C311.58151856 -0.11634279 315.97520105 -0.11423536 320.36911774 -0.1295166 C324.39285524 -0.14333718 328.41613356 -0.13863469 332.43984432 -0.11927737 C333.89400601 -0.11550895 335.34820426 -0.11846361 336.80233347 -0.12888902 C345.76109326 -0.18854253 352.39804629 0.07718704 359.41664124 6.1337738 C359.86265686 6.69193787 360.30867249 7.25010193 360.76820374 7.82518005 C361.4604303 8.65855896 361.4604303 8.65855896 362.16664124 9.5087738 C367.9155665 18.31524849 365.39320374 24.40597659 365.39320374 36.38768005 C234.38320374 36.38768005 103.37320374 36.38768005 -31.60679626 36.38768005 C-31.60679626 13.21984298 -31.60679626 13.21984298 -25.35679626 6.45018005 C-18.04910396 -0.63132178 -9.56360904 -0.04314949 0 0 Z " fill="#000000" transform="translate(88.60679626464844,393.61231994628906)"/>
<path d="M0 0 C130.68 0 261.36 0 396 0 C396 14.97435897 396 14.97435897 392 20 C386.65676062 25.33084207 382.53883186 28.24643597 374.81419754 28.26006222 C372.89726746 28.2706606 372.89726746 28.2706606 370.94161153 28.2814731 C369.52042056 28.27922166 368.09922989 28.27677515 366.67803955 28.27415466 C365.17060923 28.27860597 363.66318125 28.28391965 362.15575671 28.29002339 C358.00724503 28.3042269 353.85880817 28.30586623 349.71027565 28.30542648 C345.23842437 28.30707262 340.76660411 28.32013536 336.29476929 28.33161926 C326.51378965 28.35448429 316.73283169 28.3623915 306.95182896 28.36744571 C300.84567758 28.37070101 294.73953251 28.37722248 288.6333847 28.3844471 C271.73044156 28.40401506 254.8275043 28.42041809 237.9245491 28.42332363 C236.84255636 28.4235112 235.76056363 28.42369877 234.64578323 28.42389202 C232.45227289 28.42425828 230.25876255 28.42462198 228.06525221 28.42498314 C226.43193674 28.42525735 226.43193674 28.42525735 224.765625 28.42553711 C223.13031822 28.42580793 223.13031822 28.42580793 221.46197495 28.42608423 C203.79456226 28.42962628 186.12727143 28.45664975 168.45990101 28.494035 C150.32529019 28.53210217 132.19073987 28.55148099 114.05608821 28.55178314 C103.87242695 28.55236808 93.68891105 28.56088311 83.50528717 28.58978081 C74.83407195 28.61427342 66.16305509 28.62159193 57.49181464 28.60653328 C53.06746842 28.59935566 48.64351406 28.60025834 44.21921158 28.62294388 C40.16752631 28.6435198 36.1165345 28.64094695 32.06485686 28.62006903 C30.60050481 28.61657143 29.13610288 28.62149575 27.67181626 28.63577347 C17.9364748 28.72456804 12.09038073 27.73299157 4.94140625 21.0859375 C4.48636719 20.52132812 4.03132813 19.95671875 3.5625 19.375 C3.08941406 18.80523437 2.61632813 18.23546875 2.12890625 17.6484375 C-1.66218366 12.11265916 0 7.29014608 0 0 Z " fill="#000000" transform="translate(58,178)"/>
<path d="M0 0 C16.17 0 32.34 0 49 0 C49 54.12 49 108.24 49 164 C32.83 164 16.66 164 0 164 C0 109.88 0 55.76 0 0 Z " fill="#000000" transform="translate(381,218)"/>
<path d="M0 0 C15.84 0 31.68 0 48 0 C48 54.12 48 108.24 48 164 C32.16 164 16.32 164 0 164 C0 109.88 0 55.76 0 0 Z " fill="#000000" transform="translate(82,218)"/>
<path d="M0 0 C8.220942 5.94474598 12.81524232 12.44572695 16 22 C16.09085515 24.50980874 16.1260815 26.99119921 16.11352539 29.50073242 C16.11367142 30.26194901 16.11381744 31.02316559 16.1139679 31.80744934 C16.11327124 34.3234848 16.10549038 36.83944622 16.09765625 39.35546875 C16.09579119 41.09995992 16.0943677 42.8444516 16.09336853 44.58894348 C16.08955026 49.18058722 16.07972584 53.77219933 16.06866455 58.36383057 C16.05663719 63.8729563 16.0520449 69.38209261 16.04621124 74.89122772 C16.03651374 83.26084048 16.01735235 91.63038384 16 100 C-6.44 100 -28.88 100 -52 100 C-52.24065286 80.76559766 -52.24065286 80.76559766 -52.29296875 72.50390625 C-52.32869942 66.88815879 -52.37075503 61.27300379 -52.45263672 55.65771484 C-52.51830578 51.12537947 -52.55380518 46.59368023 -52.56926346 42.06090546 C-52.58026527 40.3402481 -52.60174763 38.61962165 -52.63438034 36.89923859 C-52.85424537 24.81658253 -51.674187 15.66716972 -43.5 6.0625 C-42.675 5.381875 -41.85 4.70125 -41 4 C-39.63875 2.700625 -39.63875 2.700625 -38.25 1.375 C-28.23167639 -6.60441855 -10.66583755 -6.69547501 0 0 Z " fill="#000000" transform="translate(274,282)"/>
<path d="M0 0 C6.93 0 13.86 0 21 0 C21 54.12 21 108.24 21 164 C14.07 164 7.14 164 0 164 C0 109.88 0 55.76 0 0 Z " fill="#000000" transform="translate(349,218)"/>
<path d="M0 0 C6.93 0 13.86 0 21 0 C21 54.12 21 108.24 21 164 C14.07 164 7.14 164 0 164 C0 109.88 0 55.76 0 0 Z " fill="#000000" transform="translate(141,218)"/>
<path d="M0 0 C4.01684726 2.93915653 6.95784056 6.06102168 8.5625 10.875 C9.04004426 16.7386172 9.42465611 22.05489266 6.875 27.4375 C3.19044571 31.32121939 -0.00309902 34.68461736 -5.484375 35.11328125 C-15.49465784 35.31390928 -15.49465784 35.31390928 -20.0625 33.1875 C-25.31535894 28.07287419 -27.58710411 24.95390005 -27.6875 17.625 C-27.62327555 11.79342012 -27.2984882 7.72817129 -23.0078125 3.44921875 C-16.51832395 -2.28154851 -8.07603656 -2.64306651 0 0 Z " fill="#000000" transform="translate(265.4375,87.125)"/>
</svg>
