<?xml version="1.0" encoding="UTF-8"?>
<svg version="1.1" xmlns="http://www.w3.org/2000/svg" width="512" height="512">
<path d="M0 0 C0.72522692 -0.00581376 1.45045385 -0.01162753 2.19765735 -0.01761746 C4.62294739 -0.03219227 7.04722135 -0.01834476 9.47250366 -0.00457001 C11.23072641 -0.00917993 12.9889453 -0.01553347 14.74715614 -0.02347898 C19.5750018 -0.04018284 24.40253133 -0.0319211 29.23037815 -0.01953411 C34.43836679 -0.0104903 39.64630076 -0.02445004 44.85427856 -0.0354538 C55.05527401 -0.05325072 65.25615181 -0.04939378 75.45715189 -0.03780323 C83.74688591 -0.02877382 92.03658694 -0.02754279 100.32632446 -0.0318985 C101.50565886 -0.03251143 102.68499326 -0.03312436 103.90006506 -0.03375587 C106.29577622 -0.03503476 108.69148736 -0.03633161 111.0871985 -0.03764623 C133.55771141 -0.04905547 156.02815907 -0.03593292 178.49866128 -0.01444477 C197.78408283 0.00342651 217.06940807 0.0003225 236.35482788 -0.01811981 C258.74431888 -0.03952043 281.13375268 -0.0479568 303.52325249 -0.03567076 C305.91020583 -0.03439655 308.29715919 -0.03313906 310.68411255 -0.0318985 C312.44580416 -0.03097285 312.44580416 -0.03097285 314.2430855 -0.03002849 C322.52393823 -0.02657317 330.8047547 -0.03240787 339.08560181 -0.04181671 C349.17565823 -0.05302907 359.26559016 -0.05001265 369.35563231 -0.02869374 C374.50484539 -0.01817312 379.65385083 -0.01407882 384.80306244 -0.02729034 C389.51570533 -0.03919898 394.22794787 -0.03267684 398.94055438 -0.01138014 C400.64637632 -0.0069076 402.35223199 -0.00919494 404.05803227 -0.01888329 C406.37598205 -0.03103974 408.69255892 -0.01858121 411.01043701 0 C412.29807135 0.00064941 413.58570568 0.00129882 414.91235924 0.00196791 C420.39314094 0.76683105 424.04750384 3.0082726 427.94271851 7.00336456 C430.24964984 12.17089075 430.26928881 16.93329203 429.50521851 22.50336456 C427.5223562 26.53990568 425.33941989 29.15337016 421.50521851 31.50336456 C418.431354 32.52798606 416.35225161 32.62667609 413.13322449 32.62361908 C411.461036 32.62568108 411.461036 32.62568108 409.75506592 32.62778473 C408.53155426 32.62418945 407.3080426 32.62059418 406.04745483 32.61688995 C404.11559074 32.61710899 404.11559074 32.61710899 402.1446991 32.61733246 C398.61191765 32.61761969 395.07917006 32.61173488 391.54639649 32.6047585 C387.85483105 32.59851269 384.16326486 32.59792019 380.47169495 32.59673309 C373.48067541 32.59362341 366.48967149 32.58541489 359.49865884 32.5753836 C351.53985531 32.56421123 343.58105103 32.55870918 335.62224162 32.55368817 C319.24989144 32.54323199 302.87755696 32.52563954 286.50521851 32.50336456 C286.50597795 33.07587055 286.50673739 33.64837653 286.50751984 34.23823118 C286.55228293 68.17495514 286.58659514 102.11167239 286.60734916 136.04841945 C286.60985056 140.12389599 286.6124392 144.19937248 286.61508179 148.27484894 C286.61586872 149.49187204 286.61586872 149.49187204 286.61667155 150.73348147 C286.62537246 163.868068 286.64114072 177.00263702 286.6595241 190.13721317 C286.67823186 203.61603862 286.68933709 217.0948549 286.6933955 230.5736928 C286.69613873 238.88981437 286.70480088 247.20588642 286.72105144 255.52199274 C286.73162913 261.22584624 286.73481735 266.92967416 286.73222126 272.63353676 C286.73094119 275.92359942 286.73398962 279.21355743 286.74362946 282.5036087 C286.75357864 286.07419367 286.75118728 289.64456669 286.74572754 293.21515656 C286.75446606 294.76770936 286.75446606 294.76770936 286.76338112 296.35162687 C286.72683095 305.19442403 285.94292891 312.06565416 279.50521851 318.50336456 C274.83113101 321.42966293 269.83747101 320.99866813 264.50521851 320.50336456 C259.12679005 318.64536201 256.04440094 315.58172943 253.50521851 310.50336456 C253.41266797 308.93216237 253.38329316 307.35704396 253.38496399 305.7831192 C253.38290199 304.28968994 253.38290199 304.28968994 253.38079834 302.76609039 C253.38439362 301.6698938 253.38798889 300.5736972 253.39169312 299.44428253 C253.39154709 298.29306915 253.39140106 297.14185577 253.39125061 295.95575714 C253.39194946 292.13566987 253.39974061 288.31563086 253.40756226 284.49555206 C253.40942653 281.85282162 253.41085039 279.21009083 253.41184998 276.56735992 C253.41496102 270.31295833 253.42317137 264.05857417 253.43319947 257.80418026 C253.44546269 249.98646379 253.45094487 242.1687445 253.45639038 234.35102081 C253.4661369 220.40178848 253.48616796 206.45259419 253.50521851 192.50336456 C222.15521851 192.50336456 190.80521851 192.50336456 158.50521851 192.50336456 C158.54002319 200.556138 158.57482788 208.60891144 158.61068726 216.90570831 C158.62602009 222.01443955 158.64046231 227.12314231 158.65170288 232.23188019 C158.66961986 240.33651442 158.69033947 248.44104754 158.73153687 256.54560089 C158.76474376 263.08136408 158.782084 269.61705903 158.78985023 276.1529026 C158.79538321 278.64350416 158.80618774 281.13409989 158.82240868 283.62465477 C158.84426001 287.11943001 158.84718214 290.61375635 158.84579468 294.10858917 C158.85658051 295.13286514 158.86736633 296.15714111 158.878479 297.21245575 C158.85067146 303.70699471 158.60319292 311.03966153 154.05317974 316.12682247 C148.36551757 320.98835295 143.75309213 321.06720197 136.50521851 320.50336456 C131.12679005 318.64536201 128.04440094 315.58172943 125.50521851 310.50336456 C125.41184134 308.97642554 125.3814822 307.44543123 125.38217068 305.91563988 C125.38017963 304.94327381 125.37818858 303.97090774 125.3761372 302.96907604 C125.37905004 301.89321809 125.38196288 300.81736015 125.38496399 299.70890045 C125.38368235 298.00349584 125.38368235 298.00349584 125.38237482 296.26363862 C125.38071878 292.42800423 125.38624345 288.59241293 125.39169312 284.75678253 C125.3925308 282.01760582 125.39186136 279.27842996 125.39125061 276.53925323 C125.39072547 270.62864353 125.39387128 264.71804483 125.39948845 258.8074379 C125.40760473 250.26162228 125.4102188 241.715812 125.41147644 233.16999294 C125.41366676 219.30601614 125.4203263 205.44204521 125.42977905 191.57807159 C125.43895369 178.10801981 125.44603427 164.63796962 125.45028687 151.16791534 C125.45054959 150.33805602 125.45081231 149.5081967 125.451083 148.65319012 C125.452388 144.49015959 125.45365172 140.32712905 125.4548949 136.1640985 C125.46526688 101.61051633 125.48288465 67.05694099 125.50521851 32.50336456 C124.82530287 32.50612994 124.14538723 32.50889532 123.44486809 32.5117445 C106.89424915 32.57802312 90.34367231 32.62765426 73.79295158 32.65880108 C65.78911444 32.67426414 57.78536594 32.69534291 49.78158569 32.72968292 C42.80476736 32.75960249 35.82801322 32.77894364 28.85113251 32.78563005 C25.15755968 32.78953799 21.46417051 32.79871038 17.77065659 32.82055473 C13.64547356 32.84475376 9.52060901 32.84533292 5.39535522 32.84394073 C4.17327866 32.85472656 2.95120209 32.86551239 1.6920929 32.87662506 C-8.73510346 32.83848036 -8.73510346 32.83848036 -13.49478149 29.50336456 C-18.3748005 24.09577594 -18.85383192 20.6449799 -18.76821899 13.48773956 C-18.39605422 9.42582683 -17.33729068 7.4187586 -14.49478149 4.50336456 C-9.42760601 1.12178378 -6.21903144 0.00313652 0 0 Z " fill="#000000" transform="translate(50.494781494140625,175.49663543701172)"/>
<path d="M0 0 C1.00289063 -0.01160156 2.00578125 -0.02320313 3.0390625 -0.03515625 C21.644272 0.03695697 39.04734096 8.60233867 52.375 21.3125 C66.09750829 35.95752986 73 54.38425368 73 74.375 C71.6368899 95.09853321 63.4849604 113.46265239 48 127.375 C33.83672869 139.30078058 17.89977751 144.74882869 -0.4375 144.6875 C-1.87706055 144.71166992 -1.87706055 144.71166992 -3.34570312 144.73632812 C-21.01471676 144.74822645 -38.61742456 136.73709688 -51.25 124.5625 C-57.9607042 117.49134724 -62.83023468 110.24086213 -66.8125 101.375 C-67.10278076 100.73481934 -67.39306152 100.09463867 -67.69213867 99.43505859 C-74.66789843 83.12054936 -74.48301972 61.76672599 -68 45.375 C-60.46130367 27.31039893 -46.87472547 13.36034523 -28.875 5.5 C-19.28560879 1.65855248 -10.31578066 -0.11933422 0 0 Z " fill="#000000" transform="translate(256,15.625)"/>
</svg>
