<?xml version="1.0" encoding="UTF-8"?>
<svg version="1.1" xmlns="http://www.w3.org/2000/svg" width="512" height="512">
<path d="M0 0 C1.26457031 0.65548828 1.26457031 0.65548828 2.5546875 1.32421875 C8.35660035 4.12213574 14.14726326 5.6796288 20.4296875 7.01171875 C21.53957031 7.28822266 21.53957031 7.28822266 22.671875 7.5703125 C38.30728092 10.07286331 55.21574121 8.24713118 69.4296875 1.19921875 C76.34310435 -2.19483031 81.42921782 -0.70664665 88.4921875 1.57421875 C89.80796843 2.04430117 91.12180011 2.5201015 92.4296875 3.01171875 C91.90568359 4.34976563 91.90568359 4.34976563 91.37109375 5.71484375 C90.91605469 6.8853125 90.46101562 8.05578125 89.9921875 9.26171875 C89.31349609 11.00195312 89.31349609 11.00195312 88.62109375 12.77734375 C86.62731882 18.18995242 86.2733871 22.87980694 86.3046875 28.63671875 C86.3044458 29.44270508 86.3042041 30.24869141 86.30395508 31.07910156 C86.32596275 35.3649883 86.52554967 39.50972817 87.1171875 43.76171875 C87.60926332 48.0508572 87.04010684 50.42239216 84.4296875 54.01171875 C81.59948398 56.84957147 78.49950853 59.26322206 75.21875 61.55859375 C65.81250139 68.30027364 60.52485006 77.6310685 57.7421875 88.76171875 C56.40839644 102.6331458 58.40551893 114.97012788 67.4296875 126.01171875 C71.62046297 130.8975988 76.21844262 134.40553448 81.70703125 137.75 C82.27550781 138.16636719 82.84398437 138.58273437 83.4296875 139.01171875 C83.4296875 139.67171875 83.4296875 140.33171875 83.4296875 141.01171875 C13.7996875 141.01171875 -55.8303125 141.01171875 -127.5703125 141.01171875 C-125.23330483 121.14715357 -125.23330483 121.14715357 -122.4453125 112.07421875 C-122.13891846 111.0577124 -121.83252441 110.04120605 -121.5168457 108.99389648 C-108.61211756 67.48809031 -79.56188342 32.29122705 -41.2578125 11.69921875 C-31.74617746 6.7273174 -21.77498167 3.26312831 -11.5703125 0.01171875 C-7.42788936 -1.36908896 -4.11748803 -1.58316789 0 0 Z " fill="#000000" transform="translate(156.5703125,173.98828125)"/>
<path d="M0 0 C3.84810449 3.11829157 6.61053268 6.4752053 9.3515625 10.58984375 C14.37355265 18.12282897 20.57104833 22.41565656 29.4140625 24.27734375 C32.97971359 24.6779787 36.02613284 24.21324558 39.5390625 23.52734375 C48.98353456 21.80042263 58.06135661 22.07842039 66.5625 26.8828125 C72.17675306 30.91626052 77.34638533 36.3763008 79.4609375 43.0859375 C80.6369621 50.43609123 80.46175119 58.27525358 78.8515625 65.52734375 C78.11208367 74.10529813 80.41675039 81.98856523 85.9140625 88.71484375 C88.82032037 91.79058103 92.01897892 94.16069351 95.4765625 96.58984375 C102.96948457 101.86568203 106.924916 107.50174592 108.8515625 116.52734375 C109.96276468 124.88846263 108.04433628 132.66009894 103.4140625 139.71875 C100.16161514 143.71394375 96.51806612 146.5459119 92.2890625 149.46484375 C85.88220169 153.9619672 81.63517626 159.04580003 79.4765625 166.65234375 C78.75186131 171.1454911 78.36514436 175.28354396 79.3359375 179.76171875 C81.2256036 189.89720056 80.83743793 199.04814546 75.61328125 208.03515625 C70.89024465 214.71652509 64.82866708 218.59383502 56.8515625 220.52734375 C50.35832258 221.06972026 44.25409555 220.64426916 37.8515625 219.52734375 C30.23467731 219.0195514 23.12904278 220.13751438 16.8515625 224.71484375 C16.1915625 225.31296875 15.5315625 225.91109375 14.8515625 226.52734375 C14.1915625 226.52734375 13.5315625 226.52734375 12.8515625 226.52734375 C12.58472656 227.08679688 12.31789063 227.64625 12.04296875 228.22265625 C6.86359067 238.24178107 0.53942494 244.8418109 -10.2734375 248.40234375 C-19.02754217 250.66494311 -26.40462005 249.27858404 -34.47265625 245.4140625 C-40.50373886 241.84593509 -43.99303637 237.00883548 -48.03515625 231.375 C-53.23510695 224.3680424 -58.53876008 221.12222905 -67.1484375 219.52734375 C-70.83750267 219.17476053 -74.3083524 219.38189965 -77.96875 220.015625 C-88.97571723 221.78701653 -97.85653485 221.00686043 -107.1484375 214.52734375 C-114.08035515 208.53283845 -117.32621671 201.30945294 -118.171875 192.2734375 C-118.14105827 188.66274397 -117.60679161 185.15480075 -117.0859375 181.58984375 C-115.77671285 172.37836086 -116.31355874 165.12914259 -121.67578125 157.328125 C-124.76036955 153.55625443 -128.49169105 150.72578061 -132.421875 147.8828125 C-139.80969777 142.44625853 -144.45653486 136.75590362 -146.1484375 127.52734375 C-147.00346554 118.25357813 -145.9154177 110.77390533 -140.41796875 103.1171875 C-136.50780803 98.442165 -132.40604931 95.25714125 -127.26171875 92.05859375 C-121.92873398 88.19439776 -117.92928821 82.12339327 -116.82519531 75.62475586 C-116.09597367 70.03053075 -116.38670956 65.08609029 -117.2109375 59.52734375 C-118.64258288 48.14855187 -116.99210161 40.98870938 -110.1484375 31.52734375 C-103.74310183 24.94889089 -95.45764395 22.95722438 -86.55078125 22.46875 C-83.07364771 22.52863175 -79.88053141 22.97359184 -76.4609375 23.58984375 C-68.4344873 24.99036755 -62.39578029 24.17072285 -55.3984375 19.90234375 C-50.9975507 16.72135189 -48.21962296 12.93958594 -45.1484375 8.52734375 C-34.05883192 -6.06992296 -15.86239245 -10.87294901 0 0 Z M-77.46484375 61.7421875 C-95.19639458 80.14480139 -102.92098444 101.64407854 -102.4609375 126.90234375 C-101.79566391 143.24589836 -95.92512238 158.43846423 -86.1484375 171.52734375 C-85.51421875 172.40003906 -84.88 173.27273438 -84.2265625 174.171875 C-71.20026164 191.16786973 -51.70049208 201.55514229 -30.734375 205.10546875 C-8.7536232 207.69143955 12.87121119 202.66886522 30.8515625 189.52734375 C34.35954025 186.69031958 37.63606437 183.69064224 40.8515625 180.52734375 C41.625 179.76679688 42.3984375 179.00625 43.1953125 178.22265625 C59.33435639 161.36509328 65.48493201 139.65873501 65.12109375 116.796875 C64.3402647 95.61448296 54.44461828 76.91583547 40.17578125 61.66796875 C38.13300694 59.30152437 38.13300694 59.30152437 35.8515625 59.52734375 C35.8515625 58.86734375 35.8515625 58.20734375 35.8515625 57.52734375 C2.10062346 30.9095819 -46.33068035 31.08733537 -77.46484375 61.7421875 Z " fill="#000000" transform="translate(374.1484375,149.47265625)"/>
<path d="M0 0 C15.45659466 12.16394153 25.3677758 28.15478109 28.00390625 47.828125 C29.20850117 67.85204704 25.38603535 86.27861816 11.97314453 101.78564453 C-1.0200524 116.03261055 -17.27652338 124.94056357 -36.6796875 126.2109375 C-54.63305896 126.88501097 -72.49424766 122.56326735 -86.30859375 110.515625 C-87.89171809 108.97402524 -89.45463469 107.41138634 -90.99609375 105.828125 C-91.77726562 105.06757813 -92.5584375 104.30703125 -93.36328125 103.5234375 C-106.42117791 90.11381298 -111.70334001 72.27644749 -111.46459961 53.90454102 C-110.70007685 34.24452886 -102.63327539 17.70076866 -88.47021484 4.171875 C-64.1169553 -18.02758517 -26.2624801 -19.03773003 0 0 Z " fill="#000000" transform="translate(233.99609375,42.171875)"/>
<path d="M0 0 C1.15274414 0.00829834 2.30548828 0.01659668 3.49316406 0.02514648 C11.79328562 0.19027918 18.57473516 0.95351609 26.1875 4.4375 C27.31671875 4.90027344 28.4459375 5.36304688 29.609375 5.83984375 C47.18152532 13.68592397 59.07452891 27.92867502 65.9609375 45.6640625 C71.94237778 64.06556349 70.75852622 83.93663421 62 101.25 C51.81932458 118.75209732 36.490578 131.10826771 16.875 136.4375 C-3.87552991 140.40716659 -23.32708554 136.15822727 -40.76953125 124.453125 C-55.18599385 113.38057308 -64.62320024 98.39742048 -67.8125 80.4375 C-69.36216479 59.06708822 -66.06105757 40.40790582 -52.3984375 23.203125 C-38.88270365 8.15605185 -20.06736833 -0.18580897 0 0 Z M-7.8125 16.4375 C-10.12837894 20.32513452 -11.90037755 24.41035408 -13.6875 28.5625 C-14.18507813 29.67238281 -14.68265625 30.78226563 -15.1953125 31.92578125 C-17.75205614 36.99753916 -17.75205614 36.99753916 -18.8125 42.4375 C-20.19308594 42.51097656 -20.19308594 42.51097656 -21.6015625 42.5859375 C-28.23258201 42.97758631 -34.84004024 43.4602617 -41.4375 44.25 C-43.09652344 44.44529297 -43.09652344 44.44529297 -44.7890625 44.64453125 C-48.31129735 45.56832153 -50.18646991 46.94893358 -52.8125 49.4375 C-54.34464888 52.50179776 -54.04188548 55.0540642 -53.8125 58.4375 C-51.36588663 64.55403343 -45.11894529 68.66879336 -40.03125 72.5703125 C-33.14364321 78.12296179 -33.14364321 78.12296179 -32.296875 81.484375 C-32.53548701 83.92555944 -33.12519409 86.08052669 -33.8125 88.4375 C-34.35049434 90.95629167 -34.87257835 93.47424572 -35.375 96 C-35.63539063 97.28777344 -35.89578125 98.57554687 -36.1640625 99.90234375 C-37.61932677 107.42381915 -37.61932677 107.42381915 -34.9375 114.375 C-32.09248165 117.13634134 -30.02827059 117.94367114 -26.02392578 117.88769531 C-19.90759962 116.6425523 -14.38794708 112.1536376 -9.17382812 108.8828125 C-7.69366211 107.99335938 -7.69366211 107.99335938 -6.18359375 107.0859375 C-5.29599365 106.53083496 -4.40839355 105.97573242 -3.49389648 105.40380859 C0.12277118 104.10045153 1.73640997 104.88014374 5.1875 106.4375 C6.70332497 107.253218 8.19270092 108.12039378 9.6484375 109.0390625 C10.45023437 109.52890625 11.25203125 110.01875 12.078125 110.5234375 C13.73225203 111.548164 15.38075454 112.58202669 17.0234375 113.625 C22.38477304 116.8727321 25.89827959 118.28795074 32.1875 117.4375 C34.87855198 115.26175584 36.64282928 113.52684144 38.1875 110.4375 C38.12976036 102.77256227 36.43472339 95.27405506 34.80859375 87.8203125 C33.78090059 82.22293967 33.78090059 82.22293967 34.1875 79.4375 C35.875 77.2265625 35.875 77.2265625 38.1875 75.0625 C39.00605469 74.28648437 39.82460938 73.51046875 40.66796875 72.7109375 C42.92344215 70.67576615 45.19963377 68.67162002 47.5 66.6875 C53.25757908 61.84548124 53.25757908 61.84548124 55.6875 54.9375 C55.09278019 50.77446131 54.30845194 49.23835431 51.1875 46.4375 C45.7143579 44.52435302 40.31453182 43.86074053 34.5625 43.3125 C33.72976563 43.22613281 32.89703125 43.13976562 32.0390625 43.05078125 C28.07420194 42.6530325 24.17790589 42.3234884 20.1875 42.4375 C19.94515625 41.65632813 19.7028125 40.87515625 19.453125 40.0703125 C17.82126817 35.38627899 15.91626742 30.85903249 13.9375 26.3125 C13.38255859 24.97251953 13.38255859 24.97251953 12.81640625 23.60546875 C10.42237948 18.13924381 8.59630147 15.11234444 3.1875 12.4375 C-1.33319699 11.5333606 -4.6551873 13.25351116 -7.8125 16.4375 Z " fill="#000000" transform="translate(354.8125,202.5625)"/>
<path d="M0 0 C4.26552603 2.66951629 6.64555943 6.79239674 9.4609375 10.86328125 C16.42706675 20.22482669 26.26510006 26.46845072 37.859375 28.171875 C51.89391283 29.25145483 63.75669204 26.56441669 75.0234375 17.765625 C79.10746064 13.85372544 82.23028413 9.50427048 85.140625 4.66796875 C87.4640899 1.43171407 89.80640211 -0.06046737 93.5625 -1.3125 C100.10348361 -1.5420082 100.10348361 -1.5420082 102.5625 -0.3125 C102.5625 32.3575 102.5625 65.0275 102.5625 98.6875 C94.68814595 94.18786911 94.68814595 94.18786911 91.28515625 91.83984375 C90.53266602 91.32268799 89.78017578 90.80553223 89.00488281 90.27270508 C88.21952148 89.7289624 87.43416016 89.18521973 86.625 88.625 C85.79452148 88.05354248 84.96404297 87.48208496 84.10839844 86.89331055 C81.5912668 85.16068013 79.07660518 83.42451812 76.5625 81.6875 C75.1394722 80.70551281 73.71630419 79.72372874 72.29296875 78.7421875 C71.62813477 78.28360352 70.96330078 77.82501953 70.27832031 77.35253906 C68.33320879 76.01424823 66.3835712 74.68274973 64.43359375 73.3515625 C61.73336382 71.50559213 59.06651162 69.61943528 56.41015625 67.7109375 C55.06530045 66.76534577 53.72025514 65.82002352 52.375 64.875 C51.76301758 64.42358643 51.15103516 63.97217285 50.52050781 63.50708008 C48.59587493 62.11133869 48.59587493 62.11133869 45.5625 60.6875 C41.62928947 61.79798248 38.7320053 63.86534063 35.5 66.3125 C28.6821644 71.37561116 21.61534453 76.02033239 14.5234375 80.6875 C8.53948886 84.64587429 2.67337428 88.7214751 -3.10522461 92.97460938 C-10.88390821 98.6875 -10.88390821 98.6875 -13.4375 98.6875 C-13.4375 66.0175 -13.4375 33.3475 -13.4375 -0.3125 C-8.53802444 -1.94565852 -4.83853114 -1.84743916 0 0 Z " fill="#000000" transform="translate(310.4375,384.3125)"/>
<path d="M0 0 C3.43821654 2.76529342 4.83281888 6.63073022 6.5625 10.5625 C8.69067189 15.65436273 8.69067189 15.65436273 12 20 C14.22053194 20.55456436 14.22053194 20.55456436 16.7890625 20.8515625 C18.20058594 21.04492188 18.20058594 21.04492188 19.640625 21.2421875 C21.11789062 21.43167969 21.11789062 21.43167969 22.625 21.625 C23.61757813 21.7590625 24.61015625 21.893125 25.6328125 22.03125 C28.08763775 22.36170724 30.54324252 22.68428484 33 23 C30.87271867 27.7406367 27.21747994 30.47209808 23.25585938 33.66992188 C20.41004277 36.12058246 19.06751987 37.76093576 18.0390625 41.40234375 C17.99711837 45.26539856 18.52431664 48.49986035 19.4375 52.25 C21 58.78026906 21 58.78026906 21 62 C15.90374689 60.65888076 11.99931605 58.22556141 7.66015625 55.33984375 C4.22944245 53.61189245 1.86214383 53.04073991 -2 53 C-4.99012888 54.14062407 -7.60984256 55.73675449 -10.3125 57.4375 C-17.83079495 62 -17.83079495 62 -20 62 C-19.41367965 56.72311683 -18.54092624 51.65729456 -17.3046875 46.4921875 C-16.90375312 43.21274987 -16.98359514 41.18074932 -18 38 C-20.12227526 35.47683406 -22.55507173 33.382417 -25.0625 31.25 C-26.36997228 30.11406198 -27.67358325 28.97365905 -28.97265625 27.828125 C-29.55281494 27.3321582 -30.13297363 26.83619141 -30.73071289 26.32519531 C-32 25 -32 25 -32 23 C-31.39003174 22.95101563 -30.78006348 22.90203125 -30.15161133 22.8515625 C-27.36699101 22.60603968 -24.59135441 22.30367994 -21.8125 22 C-20.85279297 21.92394531 -19.89308594 21.84789062 -18.90429688 21.76953125 C-13.60350655 21.21204902 -13.60350655 21.21204902 -9.32495117 18.31835938 C-8.02047493 16.26428318 -6.98757175 14.22222827 -6 12 C-5.40574219 10.8759375 -4.81148438 9.751875 -4.19921875 8.59375 C-3.70035156 7.5728125 -3.20148438 6.551875 -2.6875 5.5 C-1.91986328 3.93765625 -1.91986328 3.93765625 -1.13671875 2.34375 C-0.76160156 1.5703125 -0.38648438 0.796875 0 0 Z " fill="#000000" transform="translate(355,238)"/>
</svg>
