<?xml version="1.0" encoding="UTF-8"?>
<svg version="1.1" xmlns="http://www.w3.org/2000/svg" width="512" height="512">
<path d="M0 0 C4.3911591 3.71443723 8.73095324 7.47143415 12.64526367 11.69458008 C12.64526367 12.35458008 12.64526367 13.01458008 12.64526367 13.69458008 C13.30526367 13.69458008 13.96526367 13.69458008 14.64526367 13.69458008 C16.45089189 15.86498168 18.12231139 18.0330637 19.77026367 20.31958008 C20.26163818 20.99819092 20.7530127 21.67680176 21.25927734 22.37597656 C41.82286133 51.23062617 51.24566088 86.769 45.45776367 122.00708008 C39.09984712 156.72990452 20.56475365 187.68009217 -8.49536133 208.08911133 C-39.25126263 229.12411589 -75.27513147 236.02768733 -111.75854492 229.23803711 C-145.45951784 222.18346068 -175.66368238 201.61214106 -194.6159668 172.8425293 C-212.94574234 143.91016658 -220.5089948 107.90496256 -213.44848633 74.14379883 C-208.38252928 52.61831531 -199.39040394 33.75331456 -185.35473633 16.69458008 C-184.69473633 15.70458008 -184.03473633 14.71458008 -183.35473633 13.69458008 C-182.69473633 13.69458008 -182.03473633 13.69458008 -181.35473633 13.69458008 C-181.10594727 13.12223633 -180.8571582 12.54989258 -180.60083008 11.96020508 C-176.04367369 3.6744662 -166.99693453 -2.12192337 -159.35473633 -7.30541992 C-158.49106445 -7.90225586 -157.62739258 -8.4990918 -156.73754883 -9.11401367 C-108.86603085 -41.00468366 -43.97159157 -36.43360444 0 0 Z M-47.35473633 60.69458008 C-47.35473633 61.35458008 -47.35473633 62.01458008 -47.35473633 62.69458008 C-48.01473633 62.69458008 -48.67473633 62.69458008 -49.35473633 62.69458008 C-49.89098633 63.37520508 -50.42723633 64.05583008 -50.97973633 64.75708008 C-52.92458269 67.16254794 -54.65075836 68.88565375 -56.98461914 70.85473633 C-61.44322189 74.70939396 -65.5467741 78.84451457 -69.65161133 83.06958008 C-71.20180084 84.64698474 -72.75259946 86.223791 -74.30395508 87.80004883 C-76.72164293 90.26123627 -79.13522209 92.72597093 -81.53881836 95.20092773 C-83.87765026 97.60600209 -86.23178431 99.99514998 -88.58911133 102.38208008 C-89.30895203 103.13086426 -90.02879272 103.87964844 -90.77044678 104.65112305 C-91.44504944 105.32933105 -92.1196521 106.00753906 -92.81469727 106.70629883 C-93.40345642 107.30917725 -93.99221558 107.91205566 -94.59881592 108.53320312 C-96.35473633 109.69458008 -96.35473633 109.69458008 -98.45098877 109.56884766 C-100.35473633 108.69458008 -100.35473633 108.69458008 -102.35473633 105.69458008 C-103.01473633 105.69458008 -103.67473633 105.69458008 -104.35473633 105.69458008 C-104.35473633 105.03458008 -104.35473633 104.37458008 -104.35473633 103.69458008 C-106.18806966 101.52791341 -106.18806966 101.52791341 -108.35473633 99.69458008 C-109.01473633 99.69458008 -109.67473633 99.69458008 -110.35473633 99.69458008 C-110.35473633 99.03458008 -110.35473633 98.37458008 -110.35473633 97.69458008 C-112.18806966 95.52791341 -112.18806966 95.52791341 -114.35473633 93.69458008 C-115.01473633 93.69458008 -115.67473633 93.69458008 -116.35473633 93.69458008 C-116.35473633 93.03458008 -116.35473633 92.37458008 -116.35473633 91.69458008 C-117.77742344 90.25239356 -117.77742344 90.25239356 -119.60473633 88.81958008 C-121.71616794 87.09166199 -123.50532627 85.51970143 -125.29223633 83.44458008 C-128.34112243 80.85764641 -131.40327263 80.05716757 -135.35473633 79.69458008 C-140.92736995 80.54464283 -143.7653015 82.38725829 -147.35473633 86.69458008 C-149.07164634 89.59411692 -149.64974508 91.76792911 -149.66723633 95.13208008 C-149.68399414 95.87329102 -149.70075195 96.61450195 -149.71801758 97.37817383 C-148.96969097 102.14976177 -145.77093752 105.53434411 -142.48510742 108.88647461 C-141.71355316 109.67724396 -140.9419989 110.46801331 -140.14706421 111.28274536 C-139.31583038 112.12247894 -138.48459656 112.96221252 -137.62817383 113.82739258 C-136.76592194 114.70104462 -135.90367004 115.57469666 -135.01528931 116.474823 C-133.19067919 118.31829937 -131.36316327 120.15890358 -129.53295898 121.99682617 C-126.74662763 124.80257108 -123.98236402 127.62891367 -121.21801758 130.45629883 C-119.43939625 132.24798131 -117.65948937 134.0383887 -115.87817383 135.82739258 C-115.05908539 136.67117462 -114.23999695 137.51495667 -113.39608765 138.38430786 C-108.56358965 143.1801116 -104.30508153 146.94229542 -97.35473633 147.69458008 C-90.42416942 146.54838478 -85.98679363 143.1883503 -81.21435547 138.26708984 C-80.56276459 137.61958771 -79.91117371 136.97208557 -79.23983765 136.30496216 C-77.10840243 134.17950118 -74.99913387 132.03345479 -72.88989258 129.88598633 C-71.40656103 128.39653328 -69.92203957 126.90826439 -68.43638611 125.42112732 C-65.33505351 122.31061544 -62.24376963 119.19057726 -59.16015625 116.0625 C-55.20713945 112.05277256 -51.23683722 108.06073986 -47.25983524 104.0748148 C-44.19881197 101.00548198 -41.14349201 97.93052845 -38.09023857 94.85346794 C-36.62751433 93.37935245 -35.16385157 91.90616762 -33.69923592 90.43393135 C-31.65731128 88.3782648 -29.6223117 86.31599637 -27.58935547 84.25146484 C-26.98418594 83.6440596 -26.37901642 83.03665436 -25.75550842 82.4108429 C-25.20201721 81.8459314 -24.648526 81.2810199 -24.07826233 80.69898987 C-23.59771424 80.21249246 -23.11716616 79.72599504 -22.62205601 79.22475529 C-19.40015614 75.33459925 -18.91312958 71.8547995 -19.04223633 66.94067383 C-19.71643028 62.09490481 -22.51224691 59.43910561 -26.04223633 56.31958008 C-33.40395428 52.70817127 -42.07825705 53.95241211 -47.35473633 60.69458008 Z " fill="#000000" transform="translate(340.354736328125,155.305419921875)"/>
<path d="M0 0 C0.66064453 0.13921875 1.32128906 0.2784375 2.00195312 0.421875 C28.32534999 6.20605987 52.00628854 19.15590885 72 37 C72.01458252 35.89487061 72.02916504 34.78974121 72.04418945 33.65112305 C72.10214266 29.55264861 72.17937519 25.45472533 72.26245117 21.35668945 C72.29571464 19.58269188 72.32374218 17.8085881 72.34643555 16.03442383 C72.37995602 13.48472824 72.43226865 10.93600708 72.48828125 8.38671875 C72.49467117 7.59287277 72.5010611 6.79902679 72.50764465 5.98112488 C72.65406879 0.50308895 72.65406879 0.50308895 74.37573242 -2.00073242 C76.73394167 -3.45152912 78.28781847 -3.40682723 81 -3 C83.28071809 -1.32852461 83.93056397 -0.42817653 84.38768005 2.390625 C84.39578453 3.80601563 84.39578453 3.80601563 84.40405273 5.25 C84.42307899 6.85681641 84.42307899 6.85681641 84.44248962 8.49609375 C84.43808617 10.23052734 84.43808617 10.23052734 84.43359375 12 C84.4388356 13.18722656 84.44407745 14.37445313 84.44947815 15.59765625 C84.45590558 18.10936704 84.4545521 20.6211079 84.44604492 23.1328125 C84.43753333 26.98491756 84.46629185 30.83554148 84.49804688 34.6875 C84.49965882 37.12499955 84.49908149 39.56250174 84.49609375 42 C84.50732773 43.15628906 84.51856171 44.31257813 84.53013611 45.50390625 C84.52075516 46.57511719 84.51137421 47.64632812 84.50170898 48.75 C84.50145973 50.16539062 84.50145973 50.16539062 84.50120544 51.609375 C84 54 84 54 82.1219635 55.83178711 C80 57 80 57 77.546875 56.94140625 C74.41416625 55.78345716 72.6661559 54.23916485 70.25 51.9375 C69.37214844 51.12023437 68.49429687 50.30296875 67.58984375 49.4609375 C66.0182126 47.96753233 64.44761003 46.47304235 62.87890625 44.9765625 C44.88320353 28.30757511 21.81615955 17.93569242 -1.8125 12.1875 C-2.65965576 11.98036377 -3.50681152 11.77322754 -4.37963867 11.55981445 C-39.12263326 3.55621032 -76.16602835 11.00627699 -107 28 C-107.9075 28.49113281 -108.815 28.98226562 -109.75 29.48828125 C-119.56197227 35.07041291 -136.78326153 45.56652306 -142 56 C-142.66 56 -143.32 56 -144 56 C-144.25910156 56.57492188 -144.51820313 57.14984375 -144.78515625 57.7421875 C-146.09999328 60.18583961 -147.62621188 62.02375515 -149.4375 64.125 C-157.84117103 74.47623712 -165.23604003 86.53798551 -170 99 C-170.27295898 99.71381836 -170.54591797 100.42763672 -170.82714844 101.16308594 C-180.91165514 127.86496548 -183.73193197 154.49094133 -178.65625 182.6875 C-177.94885096 186.87169007 -177.73951026 190.75773846 -178 195 C-180 197 -180 197 -182.9375 197.3125 C-186 197 -186 197 -187.58984375 195.9296875 C-189.6757507 193.07528851 -189.99364062 190.27110059 -190.625 186.8125 C-190.86476563 185.54019531 -191.10453125 184.26789063 -191.3515625 182.95703125 C-198.18198156 142.16910152 -189.32797888 99.19666146 -165.39453125 65.28515625 C-151.69940501 46.35733017 -135.94872993 31.12162409 -116 19 C-115.071875 18.39542969 -114.14375 17.79085937 -113.1875 17.16796875 C-80.58311622 -3.34871025 -37.07279363 -7.89796889 0 0 Z " fill="#000000" transform="translate(290,100)"/>
<path d="M0 0 C1.670625 0.061875 1.670625 0.061875 3.375 0.125 C16.68915691 28.35697978 10.3114183 67.69839413 0.375 96.125 C-15.107008 136.99456615 -45.22275375 168.6259482 -84.625 187.125 C-122.85248035 204.2569224 -167.06630464 204.58724167 -206.24609375 190.52734375 C-223.93975704 183.76062809 -242.32005571 173.80901674 -255.625 160.125 C-255.63958252 161.23012939 -255.65416504 162.33525879 -255.66918945 163.47387695 C-255.72714266 167.57235139 -255.80437519 171.67027467 -255.88745117 175.76831055 C-255.92071464 177.54230812 -255.94874218 179.3164119 -255.97143555 181.09057617 C-256.00495602 183.64027176 -256.05726865 186.18899292 -256.11328125 188.73828125 C-256.12286613 189.92905022 -256.12286613 189.92905022 -256.13264465 191.14387512 C-256.27906879 196.62191105 -256.27906879 196.62191105 -258.00073242 199.12573242 C-260.35894167 200.57652912 -261.91281847 200.53182723 -264.625 200.125 C-266.90571809 198.45352461 -267.55556397 197.55317653 -268.01268005 194.734375 C-268.01808304 193.79078125 -268.02348602 192.8471875 -268.02905273 191.875 C-268.04807899 190.26818359 -268.04807899 190.26818359 -268.06748962 188.62890625 C-268.06455399 187.47261719 -268.06161835 186.31632813 -268.05859375 185.125 C-268.0638356 183.93777344 -268.06907745 182.75054687 -268.07447815 181.52734375 C-268.08090558 179.01563296 -268.0795521 176.5038921 -268.07104492 173.9921875 C-268.06253333 170.14008244 -268.09129185 166.28945852 -268.12304688 162.4375 C-268.12465882 160.00000045 -268.12408149 157.56249826 -268.12109375 155.125 C-268.13232773 153.96871094 -268.14356171 152.81242188 -268.15513611 151.62109375 C-268.14575516 150.54988281 -268.13637421 149.47867188 -268.12670898 148.375 C-268.12654282 147.43140625 -268.12637665 146.4878125 -268.12620544 145.515625 C-267.625 143.125 -267.625 143.125 -265.7469635 141.29321289 C-263.625 140.125 -263.625 140.125 -261.171875 140.18359375 C-258.03916625 141.34154284 -256.2911559 142.88583515 -253.875 145.1875 C-252.99457031 146.00605469 -252.11414063 146.82460938 -251.20703125 147.66796875 C-249.65662437 149.14331811 -248.11079563 150.62353338 -246.57421875 152.11328125 C-227.20430204 170.27963032 -201.37991473 181.02501688 -175.625 186.125 C-174.51125 186.351875 -173.3975 186.57875 -172.25 186.8125 C-135.18620429 193.22738772 -96.24467002 183.36802284 -65.39111328 162.37304688 C-60.91643832 159.21095973 -56.7540208 155.71927876 -52.625 152.125 C-51.92117188 151.55394531 -51.21734375 150.98289062 -50.4921875 150.39453125 C-44.71813948 145.62811122 -40.20319075 140.02352221 -35.625 134.125 C-34.86960937 133.16207031 -34.11421875 132.19914063 -33.3359375 131.20703125 C-10.77591331 101.86349463 1.1675375 64.4986335 -2.93261719 27.33691406 C-3.51046971 23.04017864 -4.2090951 18.77557716 -4.96875 14.5078125 C-5.66782639 10.30033944 -5.8873834 6.38873024 -5.625 2.125 C-3.625 0.125 -3.625 0.125 0 0 Z " fill="#000000" transform="translate(405.625,214.875)"/>
</svg>
