<?xml version="1.0" encoding="UTF-8"?>
<svg version="1.1" xmlns="http://www.w3.org/2000/svg" width="512" height="512">
<path d="M0 0 C0.82371094 0.72832031 1.64742187 1.45664063 2.49609375 2.20703125 C6.71546197 6.1485208 6.71546197 6.1485208 8 8 C7.89385512 10.62834934 7.29146551 11.68722631 5.50390625 13.60546875 C4.86324219 14.12753906 4.22257813 14.64960938 3.5625 15.1875 C-5.11686792 22.37198199 -13.24206026 30.08041719 -21.1875 38.0625 C-22.03763672 38.90876953 -22.88777344 39.75503906 -23.76367188 40.62695312 C-28.7173963 45.58832809 -33.46411689 50.65462301 -38 56 C-38.47042725 56.54873779 -38.94085449 57.09747559 -39.42553711 57.6628418 C-40.74760912 59.20809278 -42.06276393 60.75889091 -43.375 62.3125 C-43.84703857 62.87098633 -44.31907715 63.42947266 -44.80541992 64.00488281 C-47.66730893 67.39882366 -50.50288662 70.81254006 -53.3125 74.25 C-54.38564453 75.56291016 -54.38564453 75.56291016 -55.48046875 76.90234375 C-56.87002519 78.61074415 -58.25802115 80.32043199 -59.63916016 82.03564453 C-61.46221722 84.299145 -63.29339555 86.55591306 -65.125 88.8125 C-65.69903564 89.53018555 -66.27307129 90.24787109 -66.86450195 90.98730469 C-70.56832026 95.53557449 -74.44098008 99.30522177 -79 103 C-88.2238517 94.86588605 -96.88387731 86.18973769 -105.52001953 77.44287109 C-106.90423096 76.04609131 -106.90423096 76.04609131 -108.31640625 74.62109375 C-109.14599854 73.7798999 -109.97559082 72.93870605 -110.83032227 72.07202148 C-113.01854294 69.86233657 -113.01854294 69.86233657 -116 68 C-116 67.34 -116 66.68 -116 66 C-116.85851562 65.63261719 -116.85851562 65.63261719 -117.734375 65.2578125 C-121.83987737 62.97855084 -124.75503335 59.35313221 -128 56 C-131.3 61.94 -134.6 67.88 -138 74 C-133.50512516 79.31239383 -133.50512516 79.31239383 -128.78369141 84.34570312 C-127.95220078 85.181922 -127.95220078 85.181922 -127.10391235 86.03503418 C-126.23649918 86.89941101 -126.23649918 86.89941101 -125.3515625 87.78125 C-124.73534027 88.39842896 -124.11911804 89.01560791 -123.48422241 89.65148926 C-122.18960252 90.94678485 -120.89373823 92.24083779 -119.59667969 93.53369141 C-117.63361828 95.4914052 -115.67594262 97.45438971 -113.71875 99.41796875 C-108.18638889 104.95301496 -102.67710936 110.444773 -96.70849609 115.51416016 C-93.65607396 118.16878163 -90.83744508 121.05706333 -88 123.9375 C-87.41605469 124.52595703 -86.83210938 125.11441406 -86.23046875 125.72070312 C-84.81795195 127.14479793 -83.4086219 128.5720525 -82 130 C-79.10121231 128.70578044 -77.21615382 127.42138761 -75.15234375 125.015625 C-74.63534912 124.41741943 -74.11835449 123.81921387 -73.58569336 123.20288086 C-73.04178955 122.55843018 -72.49788574 121.91397949 -71.9375 121.25 C-71.36459229 120.5804126 -70.79168457 119.9108252 -70.20141602 119.22094727 C-66.03453705 114.31585307 -62.03838688 109.29210942 -58.09545898 104.20654297 C-50.75599689 94.77559312 -42.85106611 85.82877916 -34.73583984 77.06176758 C-31.87759365 73.97311924 -29.09525344 70.84103239 -26.4140625 67.59765625 C-16.80937269 56.7459487 -5.39330002 46.90101564 6 38 C6.63164062 37.50113281 7.26328125 37.00226563 7.9140625 36.48828125 C16.96314446 29.35407993 26.03601822 22.80930332 36 17 C37.08027466 16.32372559 37.08027466 16.32372559 38.18237305 15.63378906 C44.54058862 11.68849001 51.06091507 8.56007365 57.9375 5.625 C59.47760742 4.95017578 59.47760742 4.95017578 61.04882812 4.26171875 C68.60828267 1 68.60828267 1 72 1 C71.51129206 5.19713879 69.27604306 6.92082906 66.1875 9.625 C65.31480469 10.40101563 64.44210937 11.17703125 63.54296875 11.9765625 C61.39081569 13.68902838 59.50739398 14.91287813 57 16 C57 16.66 57 17.32 57 18 C55.63671875 19.3046875 55.63671875 19.3046875 53.6875 20.875 C48.93051038 24.91506743 44.78168377 29.42389928 40.63671875 34.0703125 C39.03336504 35.85181662 37.39747741 37.60560192 35.70703125 39.3046875 C31.89427206 43.09772332 31.89427206 43.09772332 30.875 48.1875 C31.431875 50.0746875 31.431875 50.0746875 32 52 C32.51107609 54.14322232 33.00998741 56.28936398 33.5 58.4375 C33.88671875 60.01337891 33.88671875 60.01337891 34.28125 61.62109375 C40.43328417 90.54234132 32.60586877 117.59848535 19 143 C18.52643066 143.88574707 18.05286133 144.77149414 17.56494141 145.68408203 C12.70514717 154.74802053 7.80628732 163.79037933 2.77734375 172.76171875 C-3.23599466 183.53534257 -8.60541664 194.31913747 -13.11547852 205.81030273 C-14.36108193 208.89388457 -15.68995892 211.94323747 -17 215 C-56.6 215 -96.2 215 -137 215 C-142 204 -142 204 -144.1875 198.5625 C-150.12477766 184.26156496 -157.62561675 170.73584064 -165.3046875 157.31420898 C-169.84835378 149.34724175 -174.04342279 141.27198482 -178 133 C-178.46792969 132.05640625 -178.93585938 131.1128125 -179.41796875 130.140625 C-191.68991142 104.61498424 -194.25269009 74.52005862 -185.17041016 47.53515625 C-178.83588189 30.14867867 -169.9715452 16.09979494 -157 3 C-156.39671875 2.33613281 -155.7934375 1.67226562 -155.171875 0.98828125 C-114.68162848 -42.87615248 -42.06498896 -37.25384648 0 0 Z " fill="#000000" transform="translate(333,137)"/>
<path d="M0 0 C1.10299942 -0.00686325 2.20599884 -0.0137265 3.34242249 -0.02079773 C6.98760866 -0.03909536 10.63236566 -0.03522383 14.27758789 -0.02954102 C16.81197754 -0.03410136 19.34636596 -0.03940649 21.88075256 -0.04542542 C27.19269413 -0.05436237 32.50447937 -0.0521605 37.81640625 -0.04199219 C43.94851814 -0.03051292 50.08019258 -0.04458522 56.21224684 -0.07138866 C62.12133311 -0.09624631 68.03028383 -0.09871873 73.93942451 -0.0922718 C76.44924205 -0.09211839 78.95906792 -0.0981792 81.4688549 -0.11056328 C84.97826557 -0.1254397 88.48671323 -0.1148195 91.99609375 -0.09765625 C93.03265106 -0.10732422 94.06920837 -0.11699219 95.13717651 -0.12695312 C101.09466417 -0.06594024 104.53011327 0.42591415 109.06274414 4.40405273 C112.82232869 9.54215162 112.9906944 15.27264305 112.06274414 21.40405273 C110.54084688 25.28081983 108.83704004 28.40929314 105.13597107 30.48429871 C100.5412923 31.85939218 96.08043229 31.69030115 91.30908203 31.67871094 C89.68384361 31.68637733 89.68384361 31.68637733 88.02577209 31.69419861 C84.44559194 31.70809417 80.8656043 31.70713789 77.28540039 31.70483398 C74.79585193 31.7087208 72.30630414 31.71305544 69.8167572 31.71781921 C64.59900767 31.72528126 59.38132581 31.72499012 54.16357422 31.71972656 C48.8064046 31.71435431 43.44942394 31.72140067 38.09228516 31.74023438 C31.62204968 31.76269011 25.15197205 31.77048744 18.68169975 31.76656151 C16.21654143 31.76707496 13.75137939 31.77231709 11.28624153 31.78237343 C7.83924484 31.79470977 4.39278882 31.78796255 0.94580078 31.77636719 C-0.07205505 31.78401093 -1.08991089 31.79165466 -2.13861084 31.79953003 C-7.49246144 31.7597237 -11.32026653 31.43844161 -15.93725586 28.40405273 C-19.50224203 24.19088726 -20.5956887 19.06178318 -20.32397461 13.64624023 C-19.50411365 8.89270295 -17.77265545 4.9315912 -14.03562927 1.82139587 C-9.40339514 -0.297608 -5.03735346 -0.021834 0 0 Z " fill="#000000" transform="translate(209.937255859375,401.595947265625)"/>
<path d="M0 0 C0.95748642 -0.00708481 1.91497284 -0.01416962 2.901474 -0.02146912 C3.94522186 -0.0189917 4.98896973 -0.01651428 6.06434631 -0.01396179 C7.168806 -0.01907272 8.27326569 -0.02418365 9.41119385 -0.02944946 C13.06654765 -0.04336345 16.7217133 -0.04238734 20.37709045 -0.04008484 C22.91530426 -0.04397068 25.45351742 -0.04830511 27.99172974 -0.05307007 C33.31381098 -0.06053611 38.63582301 -0.06037623 43.957901 -0.05497742 C50.1052732 -0.0489372 56.25241654 -0.06125073 62.3997497 -0.08254749 C68.31896703 -0.10229818 74.23811354 -0.10533599 80.1573658 -0.10181236 C82.67359009 -0.10232627 85.18981798 -0.10757702 87.70602226 -0.11762428 C91.22277904 -0.12994327 94.73900446 -0.12322384 98.25575256 -0.11161804 C99.2974762 -0.11926178 100.33919983 -0.12690552 101.41249084 -0.13478088 C110.21902077 -0.07045583 110.21902077 -0.07045583 114.2247467 3.26069641 C117.83716973 7.06838555 118.5416053 10.16431309 118.7247467 15.26069641 C118.55393389 20.36610152 117.71982737 23.36617795 114.2247467 27.26069641 C113.78284909 27.79783516 113.34095148 28.33497391 112.88566303 28.88838959 C110.66549248 30.7227717 109.32204893 30.64259489 106.46258545 30.65510559 C105.48267639 30.66645538 104.50276733 30.67780518 103.49316406 30.6894989 C102.41933975 30.6865683 101.34551544 30.6836377 100.239151 30.68061829 C99.10718292 30.68908783 97.97521484 30.69755737 96.8089447 30.70628357 C93.05550492 30.72974068 89.30247309 30.73067348 85.54896545 30.72944641 C82.94445632 30.73654366 80.33994877 30.74424201 77.73544312 30.7525177 C72.27033665 30.76713159 66.80534427 30.76770299 61.34022522 30.76167297 C55.0297217 30.75503797 48.71980357 30.77787185 42.40941876 30.81498671 C36.33371396 30.84942075 30.25828499 30.85601735 24.1824894 30.85189819 C21.60009329 30.85359266 19.01768971 30.86326637 16.43535423 30.88104248 C12.82260621 30.9031703 9.21126909 30.89355892 5.598526 30.87593079 C3.99689857 30.89582565 3.99689857 30.89582565 2.36291504 30.91612244 C-5.7294061 30.82434977 -5.7294061 30.82434977 -9.400177 27.85896301 C-13.67783208 23.17932879 -14.28257985 19.04157838 -14.16197205 12.83491516 C-13.53218925 8.64272463 -11.65132112 5.34868502 -8.7752533 2.26069641 C-5.75415477 0.43671645 -3.50770573 0.00867058 0 0 Z " fill="#000000" transform="translate(203.77525329589844,361.7393035888672)"/>
<path d="M0 0 C25.08 0 50.16 0 76 0 C77 3 77 3 76.03125 5.234375 C69.59072107 15.81524396 62.11524977 22.92180181 50.375 27.375 C38.12227953 29.79067863 25.4053316 28.75162563 14.875 21.875 C8.33358686 17.00241982 1.79874976 10.83649933 -1 3 C-0.67 2.01 -0.34 1.02 0 0 Z " fill="#000000" transform="translate(218,443)"/>
<path d="M0 0 C3.46917884 0.73386475 4.34306059 1.39094108 6.890625 3.69921875 C7.9429834 4.65090942 7.9429834 4.65090942 9.01660156 5.62182617 C10.12213379 6.64433472 10.12213379 6.64433472 11.25 7.6875 C11.98959961 8.36594971 12.72919922 9.04439941 13.49121094 9.7434082 C15.77190562 11.864119 18.01326679 14.02054356 20.25 16.1875 C21.02472656 16.90808594 21.79945313 17.62867188 22.59765625 18.37109375 C28.10315837 23.74065755 28.10315837 23.74065755 28.8515625 28.56640625 C28.25 31.6875 28.25 31.6875 26.625 34.125 C24.25 35.6875 24.25 35.6875 21.5 36.375 C13.71529977 34.72823649 7.27860259 25.87166793 1.8125 20.375 C1.09384766 19.66021484 0.37519531 18.94542969 -0.36523438 18.20898438 C-1.04779297 17.52513672 -1.73035156 16.84128906 -2.43359375 16.13671875 C-3.04775146 15.52143311 -3.66190918 14.90614746 -4.29467773 14.2722168 C-6.34290666 12.04187727 -6.7308899 10.86331288 -7.0625 7.8125 C-6.75 4.6875 -6.75 4.6875 -5.125 2.3125 C-2.75 0.6875 -2.75 0.6875 0 0 Z " fill="#000000" transform="translate(354.75,332.3125)"/>
<path d="M0 0 C2.9425305 2.01331034 3.82340722 3.29362888 4.6875 6.75 C3.04073649 14.53470023 -5.81583207 20.97139741 -11.3125 26.4375 C-12.02728516 27.15615234 -12.74207031 27.87480469 -13.47851562 28.61523438 C-14.16236328 29.29779297 -14.84621094 29.98035156 -15.55078125 30.68359375 C-16.47370972 31.60483032 -16.47370972 31.60483032 -17.4152832 32.54467773 C-19.64562273 34.59290666 -20.82418712 34.9808899 -23.875 35.3125 C-27 35 -27 35 -29.375 33.4375 C-31.63198153 30.05202771 -31.44645621 28.01598748 -31 24 C-29.3865001 21.75761778 -28.01838811 20.1681993 -26.0390625 18.3203125 C-25.53329681 17.82207977 -25.02753113 17.32384705 -24.50643921 16.81051636 C-22.89503 15.23150726 -21.26068592 13.6788053 -19.625 12.125 C-18.53231291 11.05886903 -17.44114883 9.99117474 -16.3515625 8.921875 C-6.52961404 -0.6529614 -6.52961404 -0.6529614 0 0 Z " fill="#000000" transform="translate(160,333)"/>
<path d="M0 0 C4.0936935 1.00371831 5.6849619 2.17602598 8.64990234 5.11572266 C9.52517578 5.98326172 10.40044922 6.85080078 11.30224609 7.74462891 C12.19298828 8.65857422 13.08373047 9.57251953 14.00146484 10.51416016 C14.91541016 11.40490234 15.82935547 12.29564453 16.77099609 13.21337891 C18.07230469 14.52628906 18.07230469 14.52628906 19.39990234 15.86572266 C20.58205322 17.0580249 20.58205322 17.0580249 21.78808594 18.27441406 C24.08685941 21.5439843 24.49606699 23.920355 24.62646484 27.88916016 C22.62646484 30.88916016 22.62646484 30.88916016 19.62646484 32.88916016 C14.14141877 32.70894515 11.4655016 31.49218647 7.60302734 27.66259766 C6.72775391 26.79505859 5.85248047 25.92751953 4.95068359 25.03369141 C3.61457031 23.66277344 3.61457031 23.66277344 2.25146484 22.26416016 C1.33751953 21.37341797 0.42357422 20.48267578 -0.51806641 19.56494141 C-1.38560547 18.68966797 -2.25314453 17.81439453 -3.14697266 16.91259766 C-3.93507324 16.11772949 -4.72317383 15.32286133 -5.53515625 14.50390625 C-7.83392972 11.23433601 -8.2431373 8.85796531 -8.37353516 4.88916016 C-5.83137188 1.07591524 -4.65529628 -0.152953 0 0 Z " fill="#000000" transform="translate(125.37353515625,102.11083984375)"/>
<path d="M0 0 C0.7683316 -0.00570007 1.53666321 -0.01140015 2.32827759 -0.01727295 C3.95744443 -0.0267368 5.58663053 -0.03326241 7.21582031 -0.03710938 C9.70932453 -0.04680795 12.20200221 -0.07781411 14.6953125 -0.109375 C16.27603676 -0.11590551 17.85676693 -0.12115579 19.4375 -0.125 C20.18446136 -0.1373468 20.93142273 -0.1496936 21.70101929 -0.16241455 C26.83408075 -0.14032156 26.83408075 -0.14032156 29.31884766 1.50878906 C31.10690834 4.44239217 30.75997798 6.87745605 30.3515625 10.203125 C28.79101562 12.39477539 28.79101562 12.39477539 26.3515625 14.203125 C23.71772412 14.58951405 21.51065695 14.74208743 18.8828125 14.69921875 C17.806828 14.7014016 17.806828 14.7014016 16.70910645 14.70362854 C15.19616626 14.70197241 13.68320874 14.6904429 12.17041016 14.66967773 C9.85897016 14.64071781 7.54982475 14.64907343 5.23828125 14.66210938 C3.76561389 14.65587147 2.29295375 14.6474801 0.8203125 14.63671875 C0.13167114 14.63965439 -0.55697021 14.64259003 -1.26647949 14.64561462 C-5.32086394 14.56618799 -7.76533453 14.13973341 -10.6484375 11.203125 C-11.5859375 8.828125 -11.5859375 8.828125 -11.6484375 6.203125 C-8.5354457 -0.0228586 -6.61228897 0.03741818 0 0 Z " fill="#000000" transform="translate(403.6484375,233.796875)"/>
<path d="M0 0 C1.14825256 -0.00430527 1.14825256 -0.00430527 2.31970215 -0.00869751 C3.93693787 -0.0107375 5.5541983 -0.00521213 7.17138672 0.00732422 C9.64737091 0.02337992 12.12172285 0.00747453 14.59765625 -0.01171875 C16.16927444 -0.00973631 17.74089161 -0.0058926 19.3125 0 C20.05318726 -0.00607269 20.79387451 -0.01214539 21.55700684 -0.0184021 C26.668492 0.05156823 26.668492 0.05156823 29.09179688 1.77490234 C30.58943771 4.05914811 31.02590867 5.66126963 31.15625 8.3984375 C28.96222015 12.99545243 28.96222015 12.99545243 26.15625 14.3984375 C23.72237273 14.53336341 21.31834751 14.61097903 18.8828125 14.63671875 C18.16265961 14.6447905 17.44250671 14.65286224 16.70053101 14.66117859 C15.17570398 14.67501364 13.65084606 14.6857384 12.12597656 14.69360352 C9.79692799 14.7108216 7.4692975 14.75470954 5.140625 14.79882812 C3.6588646 14.80895494 2.17709214 14.81747108 0.6953125 14.82421875 C0.00039703 14.84172684 -0.69451843 14.85923492 -1.41049194 14.87727356 C-4.76403783 14.86227032 -6.55894633 14.6086687 -9.28759766 12.59448242 C-11.53541085 9.42236449 -11.3260303 7.18778273 -10.84375 3.3984375 C-8.34808911 -0.66817378 -4.2798012 -0.03508892 0 0 Z " fill="#000000" transform="translate(88.84375,233.6015625)"/>
<path d="M0 0 C3.76078993 0.62679832 4.7024537 1.488815 7 4.5 C7.53344727 7.828125 7.53344727 7.828125 7.56640625 11.75 C7.57570412 12.79269043 7.57570412 12.79269043 7.58518982 13.85644531 C7.59227573 15.32225142 7.58913522 16.7881382 7.57641602 18.25390625 C7.56253906 20.49369589 7.59663812 22.72931258 7.63476562 24.96875 C7.63571683 26.39583435 7.63385793 27.82292392 7.62890625 29.25 C7.62963135 30.54421875 7.63035645 31.8384375 7.63110352 33.171875 C7 36.5 7 36.5 4.65600586 38.95703125 C2 40.5 2 40.5 -1.125 40.4375 C-4.17133366 39.44413033 -5.17023382 39.06445759 -7 36.5 C-7.40405273 33.28540039 -7.40405273 33.28540039 -7.43359375 29.34765625 C-7.4388356 28.65111435 -7.44407745 27.95457245 -7.44947815 27.23692322 C-7.45589525 25.76514009 -7.45456529 24.29330566 -7.44604492 22.8215332 C-7.43754141 20.57344844 -7.46628321 18.32791134 -7.49804688 16.08007812 C-7.49965925 14.64843826 -7.49908066 13.21679391 -7.49609375 11.78515625 C-7.49794678 10.48457275 -7.4997998 9.18398926 -7.50170898 7.84399414 C-7 4.5 -7 4.5 -5.15649414 2.07592773 C-3 0.5 -3 0.5 0 0 Z " fill="#000000" transform="translate(256,40.5)"/>
</svg>
