<?xml version="1.0" encoding="UTF-8"?>
<svg version="1.1" xmlns="http://www.w3.org/2000/svg" width="512" height="512">
<path d="M0 0 C3.86907468 2.63998893 6.46553952 5.40546168 7.8125 9.9375 C8.70274173 14.92388288 9.31957276 19.89796752 9.8125 24.9375 C13.45855721 26.1528524 14.85284608 25.55071656 18.5 24.5 C26.68703307 22.36468008 34.11182675 21.7835526 41.8125 25.9375 C47.44065863 30.78456437 50.32500133 35.75104231 51.19140625 43.19140625 C51.25199219 44.28324219 51.31257812 45.37507813 51.375 46.5 C51.60072728 50.41107059 51.95070598 54.11284391 52.8125 57.9375 C55.56628073 57.09018285 58.22830464 56.23939188 60.79296875 54.9140625 C67.52753496 51.45477713 74.58156181 50.32724762 81.95703125 52.59765625 C86.87789446 55.07416911 90.57254374 59.51799331 92.44140625 64.671875 C92.98742094 68.00543838 92.91636612 71.32093408 92.875 74.6875 C92.87048828 75.38488281 92.86597656 76.08226562 92.86132812 76.80078125 C92.8496002 78.51305803 92.83166653 80.22529033 92.8125 81.9375 C93.60914063 82.04707031 94.40578125 82.15664062 95.2265625 82.26953125 C102.63482048 83.3780662 108.16060444 84.22533409 113.5625 89.75 C117.79454878 95.74540243 118.09665011 100.83374713 117.8125 107.9375 C117.10867188 107.46699219 116.40484375 106.99648437 115.6796875 106.51171875 C114.69226563 105.88910156 113.70484375 105.26648438 112.6875 104.625 C111.73617188 104.01011719 110.78484375 103.39523438 109.8046875 102.76171875 C99.2082811 97.2549592 86.05573805 97.27605775 74.375 96.75 C73.57857086 96.71113678 72.78214172 96.67227356 71.96157837 96.63223267 C30.87627872 92.65197225 30.87627872 92.65197225 -6 106.625 C-10.1386932 110.52450427 -12.82968156 114.37547334 -14.1875 119.9375 C-14.27201801 124.83954475 -12.99105861 128.29240791 -9.94921875 132.1796875 C3.11779183 145.21772466 26.24492303 151.14052462 44.1875 151.125 C44.96464355 151.12564453 45.74178711 151.12628906 46.54248047 151.12695312 C54.39250482 151.05699139 62.06192689 150.12014876 69.8125 148.9375 C71.00068441 151.31386882 70.99692423 152.89436814 71.0847168 155.5480957 C71.11691818 156.50702225 71.14911957 157.46594879 71.18229675 158.45393372 C71.29359271 162.88120347 71.37551562 167.30833899 71.43725586 171.73657227 C71.47874152 174.05960772 71.53993634 176.38238343 71.62182617 178.7043457 C72.39748143 201.07360362 72.39748143 201.07360362 66.03125 208.73828125 C64.33894185 210.51754656 62.60208685 212.25611045 60.8125 213.9375 C59.40342825 215.55103417 58.00519287 217.17419498 56.625 218.8125 C55.03513579 220.5341519 53.42897522 222.24080871 51.8125 223.9375 C51.26964355 224.50758789 50.72678711 225.07767578 50.16748047 225.66503906 C41.91263629 234.27664329 33.52294181 241.99633234 23.8125 248.9375 C22.78898438 249.69417969 21.76546875 250.45085937 20.7109375 251.23046875 C8.44866126 260.06965298 -4.49895895 266.40614058 -18.5625 271.875 C-50.82273246 284.43620473 -75.4565824 304.44110388 -95.93847656 332.24267578 C-97.24942818 334.02153155 -98.57342776 335.79019004 -99.8984375 337.55859375 C-104.67873266 343.97255457 -109.30275752 350.47532916 -113.75 357.125 C-114.16765625 357.74874512 -114.5853125 358.37249023 -115.015625 359.01513672 C-116.93111131 361.91143475 -118.73730224 364.77842055 -120.1875 367.9375 C-124.25940091 366.54121082 -127.08334244 364.63182398 -130.375 361.875 C-131.33277344 361.07320313 -132.29054688 360.27140625 -133.27734375 359.4453125 C-136.87179174 356.34781504 -140.40628775 353.19161245 -143.91015625 349.9921875 C-145.8612616 348.23184202 -147.84763544 346.54565677 -149.875 344.875 C-152.95438555 342.24573345 -155.58829912 339.38048396 -158.19921875 336.2890625 C-159.63273984 334.59362106 -161.09783362 332.92469816 -162.58203125 331.2734375 C-177.69293976 314.29555507 -189.38252117 294.52636381 -198.3125 273.6875 C-198.77450806 272.63224121 -198.77450806 272.63224121 -199.24584961 271.55566406 C-200.89819684 267.52974965 -201.49255734 265.08878303 -200.1875 260.9375 C-198.64038086 258.96801758 -198.64038086 258.96801758 -196.65234375 257.08203125 C-195.92909912 256.38231201 -195.20585449 255.68259277 -194.46069336 254.96166992 C-193.30452515 253.86689331 -193.30452515 253.86689331 -192.125 252.75 C-185.99901483 246.78364137 -180.18237788 240.90709704 -175.1875 233.9375 C-174.55070312 233.1021875 -173.91390625 232.266875 -173.2578125 231.40625 C-162.76790383 216.87548157 -156.81712771 199.35000411 -153.1875 181.9375 C-153.04119141 181.23641113 -152.89488281 180.53532227 -152.74414062 179.81298828 C-151.07392274 171.42073154 -150.15782951 162.98050004 -149.4453125 154.4609375 C-149.38185638 153.70750565 -149.31840027 152.95407379 -149.25302124 152.17781067 C-148.93620729 148.37491023 -148.63706519 144.57172814 -148.36474609 140.76538086 C-147.83264174 133.73959603 -147.23635812 127.39938541 -144.1875 120.9375 C-143.1975 121.783125 -142.2075 122.62875 -141.1875 123.5 C-140.54039062 124.05042969 -139.89328125 124.60085937 -139.2265625 125.16796875 C-137.92997985 126.29316404 -136.65137385 127.4396793 -135.3984375 128.61328125 C-126.09192476 137.22675581 -112.51737163 146.80569175 -99.4375 147.5 C-94.00410125 147.12596168 -89.32496608 145.27120986 -85.61328125 141.21875 C-81.92952061 136.23670122 -81.06323267 132.48849984 -81.125 126.25 C-81.13402344 125.07050781 -81.14304687 123.89101562 -81.15234375 122.67578125 C-81.16394531 121.77214844 -81.17554688 120.86851562 -81.1875 119.9375 C-80.630625 120.03289062 -80.07375 120.12828125 -79.5 120.2265625 C-73.1626918 121.14718497 -67.84507322 121.21415272 -62.2734375 117.74609375 C-57.84738857 114.29000874 -54.81936477 110.34428087 -53.1875 104.9375 C-52.61961901 100.08617386 -53.16317066 95.69271993 -54.1875 90.9375 C-52.61162109 91.04191406 -52.61162109 91.04191406 -51.00390625 91.1484375 C-40.28301269 91.65876896 -40.28301269 91.65876896 -30.95703125 86.79296875 C-25.63063883 81.20789943 -22.99964178 75.79271577 -23.0859375 68.01171875 C-23.22014434 65.2708021 -23.64983184 62.62584079 -24.1875 59.9375 C-23.46304688 59.91171875 -22.73859375 59.8859375 -21.9921875 59.859375 C-15.97642049 59.50645 -11.81217584 59.13197344 -7.1875 54.9375 C-2.6173985 49.59134353 0.23826173 45.48478573 0.078125 38.171875 C-1.3958036 25.77353445 -13.01133818 16.27842946 -22.1875 8.9375 C-25.13036778 6.84121062 -28.12256218 4.850369 -31.1875 2.9375 C-30.1875 0.9375 -30.1875 0.9375 -28.4296875 0.0859375 C-19.45145577 -2.84754415 -8.72676591 -4.36338296 0 0 Z " fill="#000000" transform="translate(253.1875,82.0625)"/>
<path d="M0 0 C0.84384247 0.03911499 1.68768494 0.07822998 2.55709839 0.11853027 C32.84005505 1.55095413 32.84005505 1.55095413 43.625 10.375 C49.56549425 17.63560408 53.05170775 24.50464271 55.6875 33.5 C56.36977882 35.71524916 57.053422 37.93007848 57.73828125 40.14453125 C58.08713379 41.28744629 58.43598633 42.43036133 58.79541016 43.60791016 C68.7535802 76.04965543 81.39825351 102.61579557 106.234375 126.3828125 C107.875 128.125 107.875 128.125 107.875 130.125 C108.865 130.455 109.855 130.785 110.875 131.125 C113.17918645 133.29751865 115.34631908 135.54755725 117.484375 137.8828125 C123.56964747 144.30615567 130.60950066 149.14527573 137.875 154.125 C137.40693152 161.10496861 135.28417357 166.64644644 132.4375 173 C131.98938965 174.0101416 131.5412793 175.0202832 131.07958984 176.06103516 C117.50742674 206.15335483 97.33607864 235.00918001 70.875 255.125 C69.45739973 256.23318175 68.04081215 257.34265966 66.625 258.453125 C65.10494677 259.63641946 63.58411274 260.8187116 62.0625 262 C61.34473389 262.56025879 60.62696777 263.12051758 59.88745117 263.69775391 C56.03752807 266.65150072 52.33072484 269.12447048 47.875 271.125 C47.35703857 270.59656494 46.83907715 270.06812988 46.30541992 269.52368164 C32.70118908 255.64655525 32.70118908 255.64655525 17.875 243.125 C16.69164062 242.14080078 16.69164062 242.14080078 15.484375 241.13671875 C-2.61125952 226.10566749 -23.70083374 215.918674 -45.73657227 208.09228516 C-58.56595118 203.47616925 -69.49963948 197.89718805 -79.125 188.125 C-79.92679688 187.32191406 -80.72859375 186.51882813 -81.5546875 185.69140625 C-87.08652594 179.86287751 -87.08652594 179.86287751 -87.234375 177.02734375 C-85.4618438 173.98782723 -82.95715356 173.62794398 -79.6875 172.5 C-64.8647022 167.02353483 -51.65258032 158.65547566 -39.125 149.125 C-38.29226563 148.50496094 -37.45953125 147.88492188 -36.6015625 147.24609375 C-23.69291877 137.31801726 -10.50241197 125.43702819 -1.1875 112 C-0.506875 111.05125 0.17375 110.1025 0.875 109.125 C1.535 109.125 2.195 109.125 2.875 109.125 C3.09414063 110.15238281 3.31328125 111.17976563 3.5390625 112.23828125 C7.34649181 129.22574797 14.62128048 140.71038132 28.625 151.1875 C29.6003772 151.92226563 29.6003772 151.92226563 30.59545898 152.671875 C34.03723266 155.15589519 35.5179617 156.125 39.875 156.125 C39.8741108 153.77921974 39.8741108 153.77921974 38.875 151.125 C36.72690476 149.36934523 34.69885938 147.91440973 32.375 146.4375 C18.4223636 136.98136374 11.89560347 126.32592397 8.49487305 109.89819336 C7.52818532 104.0139244 7.45348065 98.23283365 7.46875 92.28125 C7.45791382 91.0279187 7.44707764 89.7745874 7.43591309 88.48327637 C7.39623313 83.85803594 7.38186421 79.23292737 7.36968994 74.60754395 C7.35629486 70.04023683 7.32097993 65.47341978 7.28125 60.90625 C7.28427124 59.71245728 7.28729248 58.51866455 7.29040527 57.28869629 C7.26991585 49.27309547 7.26991585 49.27309547 3.875 42.125 C0.93731087 40.70680525 -1.23326953 41.18111539 -4.3125 42 C-15.0592627 44.60314383 -25.55476506 44.64944408 -36.4375 42.875 C-37.26564209 42.74077637 -38.09378418 42.60655273 -38.94702148 42.46826172 C-52.81810199 40.09267871 -66.17003452 35.44385456 -76.125 25.125 C-77.70461804 21.96576392 -78.0495806 19.49047339 -77.125 16.125 C-71.25507523 6.84300074 -63.42561533 2.86061798 -53.01953125 0.38671875 C-35.65238222 -2.6634257 -17.50225966 -0.84594425 0 0 Z " fill="#000000" transform="translate(322.125,183.875)"/>
<path d="M0 0 C2.5625 2.0625 2.5625 2.0625 5 5 C13.65503779 14.86537289 25.09588456 22.16907033 36.31079102 28.8359375 C40.27191662 31.56561619 42.07497785 35.28581245 43 39.875 C43.37404508 44.64635559 41.74996544 48.16969099 39 52 C35.27378687 55.92028673 31.95182784 57.82572966 26.5 58.3125 C10.97406178 58.05657794 -4.79433474 45.18993209 -15.4375 35 C-24.06397724 25.96077265 -24.06397724 25.96077265 -23.95703125 19.33984375 C-22.99399185 12.40786707 -20.84026803 6.03532102 -15.2109375 1.5859375 C-10.22143086 -1.33620384 -5.50800093 -1.80764509 0 0 Z " fill="#000000" transform="translate(182,110)"/>
<path d="M0 0 C6.36508751 3.40537895 12.14102006 7.78960663 17.86328125 12.1640625 C18.81976563 12.88980469 19.77625 13.61554688 20.76171875 14.36328125 C28.67613502 20.57555594 36.67806214 27.54479681 38.30078125 37.9765625 C37.67613114 42.52758477 35.78219498 45.65672054 32.86328125 49.1640625 C27.94192671 52.82646588 22.77091472 52.92662053 16.86328125 52.1640625 C2.12942782 48.42175788 -14.1041847 35.94866823 -22.13671875 23.1640625 C-23.97957917 19.47834165 -23.61730208 15.77058391 -22.453125 11.87890625 C-20.28526709 6.49074488 -17.93532684 3.43119992 -13.13671875 0.1640625 C-8.595731 -1.34960008 -4.48264917 -1.75372381 0 0 Z " fill="#000000" transform="translate(210.13671875,83.8359375)"/>
<path d="M0 0 C4.35878903 2.37071541 7.68220856 5.67930622 11.26953125 9.06640625 C14.63970382 11.94932495 18.19811311 14.25754288 21.9375 16.625 C28.96615463 21.1296338 34.96849133 26.13026707 37.1875 34.5625 C37.98142457 39.66630078 36.41900304 42.68850391 33.59375 46.79296875 C31.08452125 49.95041492 29.05797588 51.29431925 25.03515625 51.87109375 C11.00520129 52.6025132 -0.62920102 44.32282226 -10.67993164 35.36743164 C-23.560169 23.63682206 -23.560169 23.63682206 -24.0078125 16.77734375 C-23.49126507 10.91969589 -21.23561369 5.38005584 -16.75 1.5 C-11.34774759 -2.06318776 -5.96743814 -2.65756354 0 0 Z " fill="#000000" transform="translate(157.8125,145.4375)"/>
<path d="M0 0 C4.82066205 2.41033103 8.47748788 6.24744664 12.43359375 9.85546875 C15.2222486 12.18571458 18.1251133 14.10818878 21.1875 16.0625 C27.32713485 20.04348616 32.04228307 24.21309597 35 31 C35.47357835 35.26220512 35.29830613 37.4460029 33.25 41.25 C30.24273195 44.92554984 28.47988942 46.58563096 23.875 47.875 C10.35157896 48.31123939 -1.59445503 39.01454038 -11.34765625 30.54296875 C-15.52322453 26.53958885 -19.58471122 22.62324417 -20.26953125 16.6484375 C-19.89683612 10.62487838 -17.33334327 6.7066782 -13.4375 2.1875 C-9.70502502 -0.8958489 -4.5595535 -0.54336648 0 0 Z " fill="#000000" transform="translate(132,176)"/>
<path d="M0 0 C4.09205687 0.71090818 6.25253394 3.27959047 9.015625 6.16796875 C9.82773438 6.96364258 9.82773438 6.96364258 10.65625 7.77539062 C13.60670837 10.78117009 15.73543647 13.05030227 15.765625 17.48046875 C15.105625 18.47046875 14.445625 19.46046875 13.765625 20.48046875 C8.05558165 20.09979919 5.39296917 18.93170235 1.390625 14.85546875 C0.53726563 14.01757812 -0.31609375 13.1796875 -1.1953125 12.31640625 C-3.62621559 8.93549505 -4.12630522 6.61659391 -4.234375 2.48046875 C-2.234375 0.48046875 -2.234375 0.48046875 0 0 Z " fill="#000000" transform="translate(130.234375,80.51953125)"/>
<path d="M0 0 C2.375 0.6875 2.375 0.6875 3.375 1.6875 C3.65398825 5.32576046 3.60677293 8.97730798 3.625 12.625 C3.645625 13.65302734 3.66625 14.68105469 3.6875 15.74023438 C3.69265625 16.72185547 3.6978125 17.70347656 3.703125 18.71484375 C3.71714355 20.07210571 3.71714355 20.07210571 3.73144531 21.45678711 C3.61381836 22.19292236 3.49619141 22.92905762 3.375 23.6875 C0.375 25.6875 0.375 25.6875 -2.25 25.4375 C-3.03375 25.19 -3.8175 24.9425 -4.625 24.6875 C-6.51300288 20.91149424 -5.85304484 16.3425143 -5.875 12.1875 C-5.895625 11.21167969 -5.91625 10.23585938 -5.9375 9.23046875 C-5.94265625 8.29847656 -5.9478125 7.36648437 -5.953125 6.40625 C-5.9624707 5.54966797 -5.97181641 4.69308594 -5.98144531 3.81054688 C-5.86381836 3.10994141 -5.74619141 2.40933594 -5.625 1.6875 C-2.625 -0.3125 -2.625 -0.3125 0 0 Z " fill="#000000" transform="translate(165.625,60.3125)"/>
<path d="M0 0 C2.375 1.0625 2.375 1.0625 3.6875 3.625 C4.0278125 4.8315625 4.0278125 4.8315625 4.375 6.0625 C2.06736024 8.75247061 -0.2730598 11.41122195 -2.625 14.0625 C-3.14964844 14.67867187 -3.67429687 15.29484375 -4.21484375 15.9296875 C-6.79941247 18.79533664 -8.09667381 20.00379709 -12 20.4375 C-13.299375 20.251875 -13.299375 20.251875 -14.625 20.0625 C-15.8125 17.875 -15.8125 17.875 -16.625 15.0625 C-14.97696894 10.77761923 -11.80200092 8.30649341 -8.32421875 5.4921875 C-6.45581219 3.99449405 -6.45581219 3.99449405 -4.5 1.625 C-2.625 0.0625 -2.625 0.0625 0 0 Z " fill="#000000" transform="translate(327.625,77.9375)"/>
<path d="M0 0 C2.5 0.25 2.5 0.25 4.5 2.25 C4.75878906 4.37304687 4.75878906 4.37304687 4.765625 6.96875 C4.76820313 7.90074219 4.77078125 8.83273438 4.7734375 9.79296875 C4.76570313 10.76878906 4.75796875 11.74460937 4.75 12.75 C4.75773437 13.72582031 4.76546875 14.70164062 4.7734375 15.70703125 C4.77085937 16.63902344 4.76828125 17.57101563 4.765625 18.53125 C4.76336914 19.38783203 4.76111328 20.24441406 4.75878906 21.12695312 C4.5 23.25 4.5 23.25 2.5 25.25 C0 25.5 0 25.5 -2.5 25.25 C-4.99057251 22.75942749 -4.7565813 21.96527341 -4.765625 18.53125 C-4.76820313 17.59925781 -4.77078125 16.66726562 -4.7734375 15.70703125 C-4.76570313 14.73121094 -4.75796875 13.75539063 -4.75 12.75 C-4.75773437 11.77417969 -4.76546875 10.79835938 -4.7734375 9.79296875 C-4.77085937 8.86097656 -4.76828125 7.92898437 -4.765625 6.96875 C-4.76336914 6.11216797 -4.76111328 5.25558594 -4.75878906 4.37304688 C-4.35836864 1.08808838 -3.22105998 0.322106 0 0 Z " fill="#000000" transform="translate(292.5,57.75)"/>
<path d="M0 0 C0.89009766 -0.00128906 1.78019531 -0.00257812 2.69726562 -0.00390625 C3.63376953 -0.00003906 4.57027344 0.00382812 5.53515625 0.0078125 C6.46779297 0.00394531 7.40042969 0.00007813 8.36132812 -0.00390625 C9.25271484 -0.00261719 10.14410156 -0.00132813 11.0625 0 C11.88355225 0.00112793 12.70460449 0.00225586 13.55053711 0.00341797 C15.59765625 0.1328125 15.59765625 0.1328125 17.59765625 1.1328125 C18.68802553 4.1065469 18.63629791 5.01688751 17.59765625 8.1328125 C14.07207392 9.89560367 10.04370034 9.35995131 6.16015625 9.3828125 C4.85208008 9.41375 4.85208008 9.41375 3.51757812 9.4453125 C2.67904297 9.45046875 1.84050781 9.455625 0.9765625 9.4609375 C-0.17477173 9.47495605 -0.17477173 9.47495605 -1.34936523 9.48925781 C-3.94721818 9.03820949 -4.85240509 8.23690346 -6.40234375 6.1328125 C-5.89716372 0.82842217 -5.14111147 0.00707238 0 0 Z " fill="#000000" transform="translate(112.40234375,113.8671875)"/>
<path d="M0 0 C1.25586914 -0.00386719 1.25586914 -0.00386719 2.53710938 -0.0078125 C3.41302734 -0.00007813 4.28894531 0.00765625 5.19140625 0.015625 C6.06345703 0.00789063 6.93550781 0.00015625 7.83398438 -0.0078125 C8.67251953 -0.00523438 9.51105469 -0.00265625 10.375 0 C11.14255615 0.00225586 11.9101123 0.00451172 12.70092773 0.00683594 C14.75390625 0.265625 14.75390625 0.265625 17.75390625 2.265625 C18.06640625 4.765625 18.06640625 4.765625 17.75390625 7.265625 C15.30403693 9.71549432 14.61682825 9.52193811 11.25390625 9.53125 C10.36703125 9.53382812 9.48015625 9.53640625 8.56640625 9.5390625 C7.17421875 9.52746094 7.17421875 9.52746094 5.75390625 9.515625 C4.82578125 9.52335937 3.89765625 9.53109375 2.94140625 9.5390625 C1.61109375 9.53519531 1.61109375 9.53519531 0.25390625 9.53125 C-0.56078125 9.52899414 -1.37546875 9.52673828 -2.21484375 9.52441406 C-4.24609375 9.265625 -4.24609375 9.265625 -6.24609375 7.265625 C-6.49609375 4.765625 -6.49609375 4.765625 -6.24609375 2.265625 C-3.8442969 -0.13617185 -3.27659368 0.00964413 0 0 Z " fill="#000000" transform="translate(333.24609375,110.734375)"/>
</svg>
