<?xml version="1.0" encoding="UTF-8"?>
<svg version="1.1" xmlns="http://www.w3.org/2000/svg" width="512" height="512">
<path d="M0 0 C1.26457031 -0.03867187 1.26457031 -0.03867187 2.5546875 -0.078125 C8.41907953 0.67052079 12.33157197 5.09722199 16.4375 9 C17.59823259 10.08801435 18.75968748 11.17525866 19.921875 12.26171875 C20.47681641 12.78169434 21.03175781 13.30166992 21.60351562 13.83740234 C24.02972577 16.08997807 26.53193051 18.24940031 29.04296875 20.40625 C31.22486703 22.3384376 33.33132464 24.3423518 35.44555664 26.34790039 C42.63279567 33.11973123 50.46994314 40.44100209 60.76464844 40.30004883 C61.94637634 40.28706253 63.12810425 40.27407623 64.34564209 40.26069641 C65.62892395 40.24298691 66.91220581 40.2252774 68.234375 40.20703125 C70.24318168 40.19037403 72.25198891 40.17374099 74.26080704 40.15852642 C79.22322695 40.12038803 84.18539353 40.07407268 89.14746094 40.00317383 C91.92793815 39.96396225 94.70812641 39.93547756 97.48883057 39.91886902 C100.10889277 39.90290962 102.72891652 39.87132055 105.34857178 39.82246399 C116.45006853 39.78965394 116.45006853 39.78965394 121.125 44.25 C123.76958693 47.09105011 124.58448782 49.31468309 125.15234375 53.125 C125.37748657 54.58280884 125.37748657 54.58280884 125.60717773 56.07006836 C125.83256226 57.64413452 125.83256226 57.64413452 126.0625 59.25 C126.31398804 60.88690796 126.31398804 60.88690796 126.57055664 62.55688477 C127.49096664 68.62093928 128.31914178 74.69304806 129.09375 80.77734375 C129.25625244 82.01419922 129.41875488 83.25105469 129.58618164 84.52539062 C129.8961727 86.90871504 130.19047002 89.29415072 130.46655273 91.68164062 C131.69232117 101.09224605 134.1732401 109.51883054 141.6875 115.8125 C142.56535156 116.55242187 143.44320313 117.29234375 144.34765625 118.0546875 C148.05974188 120.98885363 151.82052739 123.84434529 155.62890625 126.65234375 C159.98783046 129.87281041 164.27623465 133.18376144 168.5625 136.5 C169.33207031 137.09063232 170.10164063 137.68126465 170.89453125 138.28979492 C181.56076528 146.55729584 181.56076528 146.55729584 183.125 151.25 C183.99612199 158.65906972 182.72031457 163.29747536 178.5625 169.375 C177.84114868 170.49358398 177.84114868 170.49358398 177.10522461 171.63476562 C176.04461487 173.27937037 174.97490467 174.91813216 173.89746094 176.55175781 C171.28035384 180.53581671 168.72555617 184.55809741 166.18188477 188.58935547 C164.88212143 190.64918362 163.57313581 192.70323014 162.25366211 194.75048828 C154.03021087 207.71241607 151.99747613 216.15572877 155.3125 231.1875 C155.53446045 232.22640381 155.7564209 233.26530762 155.98510742 234.33569336 C156.69165859 237.64195548 157.40719377 240.94616436 158.125 244.25 C159.07063664 248.60246716 160.0069091 252.95679413 160.9375 257.3125 C161.26560669 258.80027954 161.26560669 258.80027954 161.6003418 260.31811523 C164.58087344 274.28043669 164.58087344 274.28043669 160.50799561 280.69737244 C156.2343815 285.49516863 148.62869878 287.24540985 142.671875 289.08984375 C141.499664 289.46309532 141.499664 289.46309532 140.30377197 289.84388733 C137.82943882 290.63133076 135.35257476 291.41032137 132.875 292.1875 C111.84343774 297.32730938 111.84343774 297.32730938 95.46264648 309.74169922 C94.73670288 311.13412842 94.73670288 311.13412842 93.99609375 312.5546875 C93.44179688 313.60309814 92.8875 314.65150879 92.31640625 315.73168945 C91.73761719 316.85148193 91.15882813 317.97127441 90.5625 319.125 C89.63587101 320.87653984 88.70923085 322.62807404 87.78152466 324.37904358 C85.64168817 328.42636985 83.52475287 332.48574324 81.40283203 336.54248047 C79.82131728 339.55517943 78.2242851 342.55920771 76.625 345.5625 C76.15763428 346.46790527 75.69026855 347.37331055 75.20874023 348.30615234 C71.97909679 354.35646273 68.91403367 358.98698878 62.125 361.25 C56.87873583 361.59002836 53.12442223 360.80353402 48.2578125 358.87109375 C47.62507919 358.62338226 46.99234589 358.37567078 46.34043884 358.12045288 C44.30570094 357.32056901 42.278049 356.50417468 40.25 355.6875 C38.84993802 355.13462136 37.44946374 354.58278569 36.04858398 354.03198242 C30.20359291 351.725546 24.37803947 349.37577746 18.58984375 346.9296875 C17.82462402 346.60685791 17.0594043 346.28402832 16.27099609 345.95141602 C14.35332325 345.13324788 12.44381066 344.29602265 10.53515625 343.45703125 C-1.79815536 339.09163229 -11.29905279 343.59525169 -22.8125 348.4375 C-25.21193809 349.42781413 -27.61167864 350.41739576 -30.01171875 351.40625 C-33.26406573 352.7533494 -36.5160895 354.1012263 -39.76806641 355.44921875 C-42.21563411 356.4575493 -44.66897926 357.44997884 -47.125 358.4375 C-47.81972412 358.72842529 -48.51444824 359.01935059 -49.23022461 359.3190918 C-54.6914016 361.49585842 -59.31119733 362.08716005 -64.9375 360.25 C-72.81123393 354.88915988 -76.59565725 345.38569144 -80.75 337.125 C-81.98130705 334.71129533 -83.21908277 332.30092875 -84.45703125 329.890625 C-85.04564941 328.74271484 -85.63426758 327.59480469 -86.24072266 326.41210938 C-88.24641085 322.53136939 -90.29511173 318.68190045 -92.4375 314.875 C-92.99566406 313.87726563 -93.55382812 312.87953125 -94.12890625 311.8515625 C-100.4715203 302.40149324 -110.5776094 299.06288524 -121.046875 295.83984375 C-122.94661908 295.23634228 -124.84635853 294.63282623 -126.74609375 294.02929688 C-129.69663583 293.1031586 -132.64817244 292.18026456 -135.60009766 291.25854492 C-138.48071576 290.35593854 -141.35757695 289.44203887 -144.234375 288.52734375 C-145.11260925 288.25744125 -145.99084351 287.98753876 -146.89569092 287.7094574 C-152.92838935 285.78745819 -158.05749583 283.91567278 -161.75 278.5 C-164.31225427 271.0979321 -162.37393693 263.96316398 -160.65234375 256.57421875 C-160.1916251 254.50855989 -159.73135251 252.4428015 -159.27148438 250.37695312 C-158.54459036 247.1568004 -157.81261028 243.93797905 -157.07202148 240.72094727 C-156.35521029 237.59175846 -155.6589454 234.45851151 -154.96484375 231.32421875 C-154.74094467 230.3780217 -154.51704559 229.43182465 -154.28636169 228.45695496 C-151.69847373 216.64284787 -153.48374992 208.37150441 -159.875 198.25 C-160.29749023 197.57437012 -160.71998047 196.89874023 -161.15527344 196.20263672 C-165.73337317 188.88183035 -170.33051006 181.57442298 -175.09765625 174.375 C-176.10721955 172.81278989 -177.11635106 171.25030063 -178.125 169.6875 C-178.84175903 168.63647095 -178.84175903 168.63647095 -179.57299805 167.56420898 C-182.99574222 162.19195294 -183.86555821 157.57597123 -182.875 151.25 C-178.2922264 140.79115472 -164.90120898 133.60965689 -156.03955078 126.89160156 C-152.72485863 124.37772946 -149.41683063 121.85624781 -146.125 119.3125 C-145.56530518 118.88864014 -145.00561035 118.46478027 -144.42895508 118.02807617 C-134.13773477 110.03774484 -131.71847784 101.2873471 -130.15625 88.9609375 C-129.86068912 86.78124837 -129.56511583 84.60156092 -129.26953125 82.421875 C-128.81923237 79.0143674 -128.37257008 75.60640333 -127.92724609 72.19824219 C-127.49153356 68.88873167 -127.04307415 65.58112307 -126.59375 62.2734375 C-126.40141785 60.74981094 -126.40141785 60.74981094 -126.2052002 59.19540405 C-125.21250498 51.91806999 -123.70490187 46.1689797 -117.875 41.25 C-114.71319164 40.19606388 -112.59226074 40.15910377 -109.27709961 40.21582031 C-107.55401833 40.2401413 -107.55401833 40.2401413 -105.79612732 40.26495361 C-104.55242874 40.28580017 -103.30873016 40.30664673 -102.02734375 40.328125 C-100.06861015 40.34841119 -98.10987566 40.36866588 -96.151124 40.38712692 C-91.32447286 40.43272605 -86.49821965 40.4852446 -81.67211914 40.57226562 C-78.96680108 40.62046015 -76.26196671 40.65494709 -73.55628967 40.67449951 C-71.01279869 40.69314953 -68.46935332 40.73097295 -65.92649841 40.79083252 C-54.93793301 40.82467097 -47.55257583 37.46023388 -39.75 29.875 C-38.72980955 28.90036829 -37.70897617 27.92640911 -36.6875 26.953125 C-35.2953125 25.61507812 -35.2953125 25.61507812 -33.875 24.25 C-32.50956841 23.03086465 -31.13585959 21.82086271 -29.75 20.625 C-26.76102542 18.03290171 -23.81178465 15.40113994 -20.875 12.75 C-19.62009766 11.62078125 -19.62009766 11.62078125 -18.33984375 10.46875 C-16.74610138 9.03412929 -15.15478343 7.59680866 -13.56640625 6.15625 C-12.86386719 5.5271875 -12.16132813 4.898125 -11.4375 4.25 C-10.51130859 3.4146875 -10.51130859 3.4146875 -9.56640625 2.5625 C-6.55831243 0.22827477 -3.67624082 0.06704391 0 0 Z M-108.84936523 112.80200195 C-110.99215703 116.44942253 -112.61545446 120.05470839 -114.16015625 123.98046875 C-114.60684662 125.091054 -114.60684662 125.091054 -115.06256104 126.22407532 C-116.02714233 128.62609304 -116.98231292 131.03173314 -117.9375 133.4375 C-118.60304384 135.09924525 -119.26930956 136.76070155 -119.9362793 138.421875 C-121.27856596 141.76634752 -122.61787377 145.11198854 -123.95507812 148.45849609 C-126.66643853 155.2357106 -129.42599372 161.99310287 -132.1875 168.75 C-133.05884343 170.8853148 -133.92995894 173.02072262 -134.80078125 175.15625 C-135.33312378 176.46045898 -135.33312378 176.46045898 -135.8762207 177.79101562 C-136.37061646 179.00821289 -136.37061646 179.00821289 -136.875 180.25 C-137.24133545 181.11560547 -137.6076709 181.98121094 -137.98510742 182.87304688 C-139.1017784 185.85573785 -139.21848807 188.08990978 -138.875 191.25 C-136.00983318 194.71431555 -132.14947848 196.05363072 -128.125 197.8125 C-102.09387124 209.64457751 -102.09387124 209.64457751 -96.875 219.25 C-97.10891416 223.59203153 -99.12928231 226.67241251 -101.375 230.3125 C-105.02504217 236.24381853 -106.45106213 240.22204201 -105.875 247.25 C-103.88972288 254.50827431 -100.22747691 258.400014 -93.875 262.25 C-90.91835481 263.7283226 -88.13270263 263.31032783 -84.875 263.25 C-84.92140625 263.806875 -84.9678125 264.36375 -85.015625 264.9375 C-85.29850488 270.91838885 -84.54675768 275.40856882 -80.875 280.25 C-74.96558098 285.71948239 -70.31877731 287.47637995 -62.328125 287.41796875 C-59.52851465 287.22627568 -57.35130447 286.57069572 -54.875 285.25 C-54.565625 286.36375 -54.565625 286.36375 -54.25 287.5 C-52.04615121 291.90769758 -48.49499194 293.51364003 -44.125 295.5 C-37.68924166 296.985175 -31.93733549 296.97318813 -25.875 294.25 C-25.3903125 294.79269531 -24.905625 295.33539063 -24.40625 295.89453125 C-20.12083572 300.46838687 -16.31963288 304.49959754 -9.875 305.25 C-3.65320935 304.89721806 1.1976307 304.15940729 6.125 300.25 C9.64094949 300.3504557 12.37889672 301.82878367 15.5 303.3125 C21.51426404 306.01743259 25.97336423 305.82756181 32.1875 303.75 C37.45114251 301.47122794 40.62389078 298.41957891 43.125 293.25 C43.82720816 290.47886982 44.02209262 288.13140652 44.125 285.25 C45.300625 285.5903125 45.300625 285.5903125 46.5 285.9375 C52.78545991 286.47934999 58.2064154 284.84201701 63.0625 280.8125 C63.743125 279.966875 64.42375 279.12125 65.125 278.25 C65.63804687 277.64542969 66.15109375 277.04085937 66.6796875 276.41796875 C68.34821723 273.91517415 68.80756816 271.95190922 69.3125 269 C69.47105469 268.10796875 69.62960937 267.2159375 69.79296875 266.296875 C69.90253906 265.62140625 70.01210938 264.9459375 70.125 264.25 C71.32125 264.1675 72.5175 264.085 73.75 264 C79.84532945 263.21523977 84.2755065 259.966216 88.0859375 255.16015625 C90.4997351 250.72276141 91.64487297 244.88461047 90.6640625 239.9140625 C90.48617187 239.36492187 90.30828125 238.81578125 90.125 238.25 C91.011875 238.0025 91.89875 237.755 92.8125 237.5 C98.58110437 235.32316816 101.83145651 232.19522232 104.40625 226.671875 C106.17624523 220.70776063 105.70461473 214.20595046 104.125 208.25 C104.66229736 208.08491943 105.19959473 207.91983887 105.75317383 207.74975586 C111.67189584 205.86313532 117.21719102 203.5002226 122.8125 200.8125 C123.62783203 200.43029297 124.44316406 200.04808594 125.28320312 199.65429688 C132.6982372 196.21558298 132.6982372 196.21558298 139.125 191.25 C138.79572044 184.06311558 136.89580028 178.53105064 134 172 C133.09516521 169.89950882 132.19301024 167.79786202 131.29296875 165.6953125 C130.7932959 164.53161133 130.29362305 163.36791016 129.77880859 162.16894531 C127.89514906 157.73742673 126.09631366 153.27249097 124.30078125 148.8046875 C123.97174805 147.98673706 123.64271484 147.16878662 123.30371094 146.3260498 C121.98083611 143.03484183 120.65928266 139.74312518 119.34344482 136.44909668 C114.71327388 122.42010256 114.71327388 122.42010256 107.125 110.25 C101.14183211 109.45350855 96.78981285 111.96566509 91.5625 114.5 C77.58642748 121.04334885 61.92467524 127.62307538 46.33984375 123.16796875 C43.95208479 122.29672547 41.57664228 121.39051197 39.21875 120.44140625 C30.58489928 117.11650162 20.86737502 117.27759249 12.125 120.25 C10.30876447 121.2222202 8.49642207 122.2017391 6.6875 123.1875 C1.91913065 125.47206693 1.91913065 125.47206693 -1.4453125 124.53125 C-3.12433404 123.62594685 -4.77742273 122.67103405 -6.40234375 121.671875 C-15.48307407 116.45009643 -26.15541119 117.79562227 -35.81640625 120.31640625 C-38.68875271 121.19315057 -41.36146521 122.26975071 -44.125 123.4375 C-55.49279952 127.67994968 -67.91463279 125.83481178 -78.875 121.25 C-84.30028532 118.76106015 -89.59132791 116.02349142 -94.875 113.25 C-102.31237147 109.00557921 -102.31237147 109.00557921 -108.84936523 112.80200195 Z " fill="#000000" transform="translate(255.875,16.75)"/>
<path d="M0 0 C4.10106372 0.7449012 7.3647952 1.9878306 11.125 3.8125 C28.04285966 11.74809896 42.85170498 15.40828243 61 10 C62.95981219 9.27481751 64.9181593 8.54566298 66.875 7.8125 C74.62244922 5.16553969 83.65913801 4.24219161 91.375 7.5 C92.24125 7.995 93.1075 8.49 94 9 C94 9.66 94 10.32 94 11 C92.08037402 12.69433226 90.15562399 14.25971816 88.125 15.8125 C87.50367188 16.29243408 86.88234375 16.77236816 86.2421875 17.2668457 C84.17011633 18.85633435 82.08727868 20.43053966 80 22 C78.90896973 22.82129395 78.90896973 22.82129395 77.79589844 23.65917969 C69.02317496 30.22247651 60.36692187 36.26329516 50.52734375 41.12109375 C47.73873095 42.81740181 47.73873095 42.81740181 47.0078125 46.01953125 C46.9973147 50.02444287 48.64154095 51.85538794 51 55 C51 55.66 51 56.32 51 57 C51.66 57 52.32 57 53 57 C54.0828125 58.11375 54.0828125 58.11375 55.1875 59.25 C62.14680819 66.0546569 68.93585817 67.32515783 78.44433594 67.3894043 C89.49236452 67.17827188 99.44469661 62.42783735 109.4140625 58.015625 C120.9402922 53.48870699 134.8872193 55.2373797 146 60 C151.12508815 62.45625778 156.11001417 65.16096919 161.07275391 67.92773438 C163.63770469 69.35480099 166.22636923 70.73677396 168.8125 72.125 C170.5441441 73.07884948 172.2732781 74.03726866 174 75 C174.99644531 75.55300781 175.99289062 76.10601562 177.01953125 76.67578125 C193.51750439 86.03500878 193.51750439 86.03500878 196 91 C196.03831515 95.03841705 195.91798542 98.78825924 193.4375 102.0625 C188.56473105 103.93664191 184.29794572 103.55662408 179.62011719 101.55053711 C178.52344727 100.8828833 177.42677734 100.21522949 176.296875 99.52734375 C175.69296936 99.1666127 175.08906372 98.80588165 174.46685791 98.43421936 C172.55088954 97.28483297 170.65058841 96.1121053 168.75 94.9375 C167.49187105 94.17610333 166.23276151 93.41632453 164.97265625 92.65820312 C156.43605657 87.5108252 156.43605657 87.5108252 152.2668457 84.92510986 C150.64728076 83.92105696 149.01911587 82.9309164 147.390625 81.94140625 C146.46797852 81.37236572 145.54533203 80.8033252 144.59472656 80.21704102 C141.76986756 78.89205775 140.07894645 78.5844145 137 79 C134.78011913 80.82465202 134.78011913 80.82465202 134.62939453 83.4387207 C134.7469049 86.07868052 134.7469049 86.07868052 136.64794922 87.61401367 C137.40092285 88.06494385 138.15389648 88.51587402 138.9296875 88.98046875 C139.75436523 89.48497559 140.57904297 89.98948242 141.42871094 90.50927734 C142.27723633 91.00121582 143.12576172 91.4931543 144 92 C144.75313477 92.44939941 145.50626953 92.89879883 146.28222656 93.36181641 C148.55088931 94.70121339 150.83522876 96.00955895 153.125 97.3125 C154.78424537 98.26754983 156.44309414 99.223289 158.1015625 100.1796875 C158.92043945 100.65116211 159.73931641 101.12263672 160.58300781 101.60839844 C161.38061523 102.06762695 162.17822266 102.52685547 163 103 C163.7537793 103.43344727 164.50755859 103.86689453 165.28417969 104.31347656 C167.36133151 105.5128011 169.43147818 106.72336763 171.5 107.9375 C172.11633301 108.29046143 172.73266602 108.64342285 173.36767578 109.00708008 C176.64298113 110.9430774 179.09461103 112.66722905 181 116 C181.51673305 120.06004538 181.40109741 122.26198077 179.4375 125.875 C176.24132855 128.66140588 174.20358318 128.7880268 170 129 C167.03173828 127.8828125 167.03173828 127.8828125 164.0703125 126.125 C162.9568042 125.47595703 161.8432959 124.82691406 160.69604492 124.15820312 C159.50561639 123.43893484 158.31526994 122.7195307 157.125 122 C155.88946353 121.27362589 154.65287503 120.54903852 153.4152832 119.82617188 C147.76440415 116.51080696 142.16465818 113.11381387 136.59100342 109.67041016 C134.87840152 108.61273773 133.16261577 107.56022625 131.44677734 106.5078125 C129.31627499 105.19535922 127.19499014 103.8677923 125.08447266 102.5234375 C119.8130136 99.26154019 116.25898727 97.09214132 110 98 C109.14349347 100.80045046 109.14349347 100.80045046 109 104 C111.84496843 107.519692 115.25904531 109.46043528 119.1875 111.625 C120.44071061 112.32443535 121.69328663 113.02500861 122.9453125 113.7265625 C123.6043457 114.09426758 124.26337891 114.46197266 124.94238281 114.84082031 C130.66531859 118.06489472 136.30764079 121.43132753 141.95458984 124.78613281 C143.29190277 125.57977328 144.63071309 126.37089742 145.97119141 127.15917969 C147.77749652 128.22291859 149.57705372 129.29720924 151.375 130.375 C152.39335937 130.98085938 153.41171875 131.58671875 154.4609375 132.2109375 C156.96530644 133.97555438 158.44999619 135.3737477 160 138 C160.4375 141.5 160.4375 141.5 160 145 C157.5009488 148.16546486 155.48794778 149.78842165 151.47265625 150.359375 C146.46333236 149.84097478 142.76908286 147.72692036 138.4375 145.25 C137.15117676 144.51487183 137.15117676 144.51487183 135.83886719 143.76489258 C129.66164059 139.97639351 126.93776322 136.73955947 124.8671875 129.67578125 C123.70391019 126.08638954 122.0836089 124.26763272 119.08203125 122.05078125 C112.36280329 118.65965119 105.23429481 118.63503872 98 120 C97.525625 119.113125 97.05125 118.22625 96.5625 117.3125 C93.67479789 113.05162486 89.79225525 110.74065198 85 109 C83.10781825 108.85585873 81.21002131 108.77326661 79.3125 108.75 C74.51743211 108.54297061 74.51743211 108.54297061 72.1796875 106.08984375 C71.18908458 104.49502491 70.23890578 102.87434218 69.33203125 101.23046875 C67.12583882 97.53622864 64.19854593 95.71780042 60.09765625 94.37890625 C57.77193557 93.958804 55.9037791 94.17375105 53.5625 94.4375 C51.171875 94.4765625 51.171875 94.4765625 49 94 C47.30354269 92.16961185 46.3156983 90.31868849 45.171875 88.10546875 C42.86844149 83.96696654 39.45907763 81.72953882 35.25 79.625 C27.50344109 78.13527713 21.45181369 79.65490098 15 84 C14.01 84.66 13.02 85.32 12 86 C11.154375 85.05125 10.30875 84.1025 9.4375 83.125 C0.05681037 73.78213573 -12.11228379 67.53172619 -24 62 C-23.3934646 56.11630181 -21.1610962 51.09826295 -18.88671875 45.703125 C-18.47589554 44.71431335 -18.06507233 43.72550171 -17.64179993 42.70672607 C-16.32963931 39.55197048 -15.00881863 36.40092939 -13.6875 33.25 C-12.37886424 30.11255845 -11.07199793 26.97438425 -9.76533508 23.83612061 C-8.9532616 21.88758706 -8.13970615 19.93967021 -7.3243866 17.99249268 C-4.8247736 12.01757498 -2.38715317 6.020737 0 0 Z " fill="#000000" transform="translate(154,141)"/>
<path d="M0 0 C7.43328913 16.8487887 14.22665566 33.94460281 21.03286743 51.05273438 C24.43791965 59.60472795 27.86640362 68.14722466 31.29746056 76.68880653 C33.22950435 81.49966433 35.15955628 86.31132166 37.08966923 91.12295437 C38.7067761 95.15383426 40.32508601 99.18422316 41.94595337 103.21359253 C43.48988086 107.05190336 45.03052489 110.89151625 46.5687809 114.73210335 C47.14518595 116.16949082 47.72281007 117.60639007 48.30168724 119.04278374 C49.09883074 121.02124477 49.89173017 123.00135461 50.68359375 124.98193359 C51.13275146 126.10038666 51.58190918 127.21883972 52.04467773 128.3711853 C53 131 53 131 53 133 C44.34071503 131.7192097 35.73469363 130.25784539 27.13671875 128.6171875 C25.97872269 128.39805695 24.82072662 128.17892639 23.62763977 127.95315552 C19.98052885 127.26251536 16.33400826 126.56881428 12.6875 125.875 C10.19339801 125.40213991 7.69925771 124.92948186 5.20507812 124.45703125 C-0.86372548 123.30701934 -6.93204934 122.15450349 -13 121 C-22.89447314 133.0801449 -22.89447314 133.0801449 -32.4375 145.4375 C-37.06574821 151.54131723 -41.78966005 157.55872135 -46.625 163.5 C-47.21724365 164.23661865 -47.8094873 164.9732373 -48.41967773 165.73217773 C-48.97469971 166.40837158 -49.52972168 167.08456543 -50.1015625 167.78125 C-50.58963379 168.38001953 -51.07770508 168.97878906 -51.58056641 169.59570312 C-53 171 -53 171 -56 172 C-65.13015781 145.53634605 -74.03081287 118.99778611 -82.875 92.4375 C-83.15000336 91.61163391 -83.42500671 90.78576782 -83.70834351 89.93487549 C-87.14144487 79.62409788 -90.57192881 69.31245108 -94 59 C-90.61097613 57.87032538 -90.27047103 58.04526042 -87.19140625 59.43359375 C-86.07934814 59.9133667 -86.07934814 59.9133667 -84.94482422 60.40283203 C-84.15865723 60.74427246 -83.37249023 61.08571289 -82.5625 61.4375 C-73.72863703 65.06314178 -66.06284143 66.80367808 -56.6875 63.875 C-48.68522575 60.14970767 -44.52421164 54.28930076 -40.5625 46.625 C-40.09223389 45.74448975 -39.62196777 44.86397949 -39.13745117 43.95678711 C-36.26333003 38.54071984 -33.52062818 33.06289764 -30.8125 27.5625 C-20.30624419 6.34789385 -20.30624419 6.34789385 -13.08984375 3.6328125 C-12.40019531 3.42398437 -11.71054687 3.21515625 -11 3 C-10.19691406 2.70867187 -9.39382813 2.41734375 -8.56640625 2.1171875 C-2.60585586 0 -2.60585586 0 0 0 Z " fill="#000000" transform="translate(381,323)"/>
<path d="M0 0 C3.70021952 0.89784738 7.35233836 1.90811718 11 3 C11.73605469 3.20882813 12.47210938 3.41765625 13.23046875 3.6328125 C24.67107849 7.97156669 30.96891694 27.49341036 36.15087891 37.8659668 C42.44505196 51.73451306 42.44505196 51.73451306 53.1875 61.9375 C53.84105469 62.31777344 54.49460937 62.69804687 55.16796875 63.08984375 C61.35842473 66.16527284 68.7629163 66.29171771 75.32080078 64.29248047 C78.59204743 63.09571494 81.80253666 61.79682453 84.99438477 60.40234375 C85.73100342 60.08265625 86.46762207 59.76296875 87.2265625 59.43359375 C87.88221191 59.13509521 88.53786133 58.83659668 89.21337891 58.52905273 C91 58 91 58 94 59 C89.19489097 73.438668 84.38807293 87.87676625 79.57920933 102.31418419 C77.3465064 109.0174534 75.11436706 115.7209093 72.88354492 122.42480469 C70.73226151 128.88967118 68.57942027 135.35401717 66.4256115 141.81804276 C65.60253804 144.2891164 64.77999425 146.76036652 63.9579792 149.23179245 C62.81004131 152.68282357 61.66025265 156.13323268 60.51000977 159.58349609 C60.16762772 160.61423752 59.82524567 161.64497894 59.4724884 162.70695496 C59.15979004 163.64367538 58.84709167 164.58039581 58.5249176 165.54550171 C58.25298867 166.36221029 57.98105974 167.17891888 57.70089054 168.02037621 C57 170 57 170 56 172 C52.86066452 170.63741467 51.04738048 169.1931018 48.8984375 166.54296875 C48.33116943 165.84937256 47.76390137 165.15577637 47.17944336 164.44116211 C46.58397705 163.69745361 45.98851074 162.95374512 45.375 162.1875 C44.75181885 161.41994385 44.1286377 160.6523877 43.48657227 159.86157227 C39.0924939 154.42680601 34.81843022 148.90895482 30.5859375 143.34765625 C27.48242332 139.2997553 24.27563006 135.33609439 21.0625 131.375 C20.50618896 130.68720459 19.94987793 129.99940918 19.37670898 129.29077148 C18.85149658 128.64567627 18.32628418 128.00058105 17.78515625 127.3359375 C17.31988525 126.76407715 16.85461426 126.1922168 16.37524414 125.60302734 C15.92141357 125.07402832 15.46758301 124.5450293 15 124 C14.60006332 123.45624222 14.20012665 122.91248444 13.78807068 122.35224915 C12.01501916 120.71582695 12.01501916 120.71582695 9.30566406 121.09480286 C8.21995117 121.3146434 7.13423828 121.53448395 6.015625 121.76098633 C4.78424805 122.00146194 3.55287109 122.24193756 2.28417969 122.48970032 C0.93939522 122.77019985 -0.40532996 123.05098373 -1.75 123.33203125 C-3.12826559 123.60694659 -4.50685244 123.88025586 -5.88574219 124.15202332 C-9.51762652 124.87194031 -13.14511341 125.61198463 -16.77197266 126.35675049 C-21.1768659 127.25778429 -25.58614732 128.13702677 -29.99517822 129.01755047 C-33.42623481 129.70291221 -36.85634206 130.39215839 -40.28417969 131.09346008 C-41.51555664 131.34339218 -42.74693359 131.59332428 -44.015625 131.85083008 C-45.10133789 132.0730574 -46.18705078 132.29528473 -47.30566406 132.52424622 C-50 133 -50 133 -53 133 C-52.3529747 129.17098607 -51.24083873 125.81227959 -49.78198242 122.21704102 C-49.32027145 121.0729628 -48.85856049 119.92888458 -48.38285828 118.75013733 C-47.87379307 117.50136728 -47.36466125 116.2526244 -46.85546875 115.00390625 C-46.32473935 113.69302789 -45.79441833 112.38198412 -45.26448059 111.07078552 C-43.86072658 107.60046079 -42.45184384 104.13224162 -41.04174805 100.66448975 C-39.65598467 97.25463658 -38.27426281 93.8431481 -36.89257812 90.43164062 C-36.34520361 89.08016805 -35.79782507 87.7286971 -35.2504425 86.37722778 C-34.97936487 85.70792362 -34.70828724 85.03861946 -34.42899513 84.34903336 C-33.60206182 82.30799728 -32.77444093 80.26724107 -31.94670105 78.22653198 C-28.15482448 68.8745182 -24.39695669 59.50930436 -20.65625 50.13671875 C-16.54694459 39.84228292 -12.40270839 29.56392104 -8.16821289 19.3203125 C-7.26976447 17.14660563 -6.37402808 14.9717929 -5.47851562 12.796875 C-4.89858422 11.39056449 -4.31851272 9.98431174 -3.73828125 8.578125 C-3.47485428 7.93885071 -3.21142731 7.29957642 -2.9400177 6.64093018 C-2.0115039 4.39648131 -1.08664838 2.17329676 0 0 Z " fill="#000000" transform="translate(131,323)"/>
<path d="M0 0 C2.37487094 2.14458628 3.62240074 3.99449946 4.8059082 6.95800781 C5.12666824 7.75023743 5.44742828 8.54246704 5.77790833 9.35870361 C6.11545639 10.21486267 6.45300446 11.07102173 6.80078125 11.953125 C7.15963913 12.84553894 7.51849701 13.73795288 7.88822937 14.65740967 C9.03688805 17.51877003 10.17482932 20.38425552 11.3125 23.25 C12.0663532 25.13309452 12.82090347 27.01591014 13.57617188 28.8984375 C15.04401773 32.55870574 16.50257539 36.2224846 17.95556641 39.88867188 C19.24298274 43.1285396 20.55929243 46.35280675 21.91552734 49.56445312 C22.20324509 50.25416199 22.49096283 50.94387085 22.78739929 51.65447998 C23.54735917 53.47051377 24.31851079 55.28185302 25.09057617 57.09277344 C26 60 26 60 26.02758789 62.19506836 C24.36905927 65.10823112 21.94734695 65.87244003 18.953125 67.26953125 C18.34490906 67.55479172 17.73669312 67.84005219 17.11004639 68.13395691 C15.82210157 68.73339767 14.53073992 69.32554332 13.23632812 69.91088867 C11.26173733 70.80717233 9.30286383 71.73256505 7.34375 72.66210938 C6.08937449 73.24139015 4.83418986 73.8189227 3.578125 74.39453125 C2.43762695 74.91893799 1.29712891 75.44334473 0.12207031 75.98364258 C-3.27870491 77.09072948 -4.67111283 77.18982963 -8 76 C-10.47045898 74.60400391 -10.47045898 74.60400391 -13.05859375 72.8515625 C-18.89469461 69.01951236 -24.90896066 65.66633646 -31.0625 62.375 C-32.07376953 61.8284375 -33.08503906 61.281875 -34.12695312 60.71875 C-53.88045119 50.08518633 -71.39512969 42.49244623 -94.03125 48.8515625 C-100.48619788 50.94092721 -106.79269452 53.42879843 -113.08984375 55.94921875 C-120.8397751 58.74751611 -128.60942953 59.15189195 -136.26953125 55.92578125 C-138.67086291 54.64109592 -140.33772262 53.14710828 -142 51 C-142 50.34 -142 49.68 -142 49 C-139.71475837 47.4836822 -137.42398865 46.07633806 -135.0625 44.6875 C-120.40735614 35.79496747 -107.37313651 24.81976694 -94.42700195 13.6418457 C-86.61824878 6.99478524 -79.12776352 5.94861423 -69.01855469 6.71923828 C-64.24690283 7.38292958 -59.78731135 9.16319565 -55.28515625 10.8125 C-38.73514566 16.79490573 -19.60733605 8.99717218 -4.375 2.125 C-2.91196333 1.42643294 -1.45137227 0.72248928 0 0 Z " fill="#000000" transform="translate(356,140)"/>
<path d="M0 0 C2.1640625 0.41015625 2.1640625 0.41015625 4.7265625 2.47265625 C6.58276943 6.26577476 6.63141972 8.18307708 6.1640625 12.41015625 C4.61015652 16.00959737 2.63103869 19.31081513 0.6015625 22.66015625 C0.05234131 23.58876465 -0.49687988 24.51737305 -1.06274414 25.47412109 C-2.63952092 28.12835038 -4.23677267 30.76938176 -5.8359375 33.41015625 C-6.56385203 34.64634028 -7.29063789 35.8831906 -8.015625 37.12109375 C-10.85180682 41.82285295 -12.76928163 44.95501745 -17.8359375 47.41015625 C-22.09474562 47.41015625 -24.08044273 47.08816438 -27.2734375 44.22265625 C-29.13158097 40.87799801 -29.1503263 39.1936528 -28.8359375 35.41015625 C-27.73779297 32.76049805 -27.73779297 32.76049805 -26.203125 30.109375 C-25.64367187 29.13162109 -25.08421875 28.15386719 -24.5078125 27.14648438 C-23.91484375 26.14037109 -23.321875 25.13425781 -22.7109375 24.09765625 C-22.14117187 23.10314453 -21.57140625 22.10863281 -20.984375 21.08398438 C-8.61542774 -0.32272775 -8.61542774 -0.32272775 0 0 Z " fill="#000000" transform="translate(210.8359375,245.58984375)"/>
<path d="M0 0 C2.9375 2.1875 2.9375 2.1875 5 5 C5.79616041 10.60561921 3.72173012 14.05065165 0.9375 18.6875 C0.32503418 19.73490356 0.32503418 19.73490356 -0.29980469 20.8034668 C-1.51991047 22.87721801 -2.75904343 24.93868123 -4 27 C-4.65355469 28.11632812 -5.30710938 29.23265625 -5.98046875 30.3828125 C-10.94464346 38.60164481 -10.94464346 38.60164481 -16 41 C-20.22725413 40.77751294 -23.300962 39.96688454 -27 38 C-28.41757292 29.1795463 -24.92307509 23.09411881 -20.38378906 15.81982422 C-19.24330019 13.98924625 -18.13940426 12.14008794 -17.0390625 10.28515625 C-9.32678924 -2.45441822 -9.32678924 -2.45441822 0 0 Z " fill="#000000" transform="translate(238,261)"/>
<path d="M0 0 C3.40521855 1.92468874 4.72617801 3.01560994 5.78125 6.80859375 C6.18036639 12.63141679 2.79810004 17.05855534 0 22 C-0.36544922 22.65403809 -0.73089844 23.30807617 -1.10742188 23.98193359 C-2.26365478 26.03946273 -3.43972651 28.08407802 -4.625 30.125 C-4.9967334 30.77654053 -5.3684668 31.42808105 -5.75146484 32.09936523 C-7.74082352 35.43747908 -9.18810608 37.8330937 -13 39 C-16.88433181 39.32369432 -19.77205762 39.30567313 -23 37 C-25.32521135 33.7447041 -25.29711203 30.91537485 -25 27 C-23.6706543 24.05566406 -23.6706543 24.05566406 -21.82421875 21.015625 C-21.16099609 19.91605469 -20.49777344 18.81648438 -19.81445312 17.68359375 C-19.46519775 17.1201123 -19.11594238 16.55663086 -18.75610352 15.97607422 C-17.68717894 14.2494814 -16.64015213 12.51101563 -15.59570312 10.76953125 C-8.49554192 -0.87884916 -8.49554192 -0.87884916 0 0 Z " fill="#000000" transform="translate(265,271)"/>
<path d="M0 0 C2.16015625 0.36328125 2.16015625 0.36328125 4.66015625 2.23828125 C7.18976832 5.82189834 7.47499151 7.96363456 7.16015625 12.36328125 C6.04614258 15.00048828 6.04614258 15.00048828 4.4921875 17.62109375 C3.92822266 18.57628906 3.36425781 19.53148437 2.78320312 20.515625 C2.18572266 21.49660156 1.58824219 22.47757813 0.97265625 23.48828125 C0.39451172 24.47699219 -0.18363281 25.46570313 -0.77929688 26.484375 C-3.68978002 31.34504628 -6.09397381 35.10583206 -10.83984375 38.36328125 C-15.23667815 39.06991535 -17.07711842 38.8825836 -20.77734375 36.36328125 C-22.91210918 33.25816789 -23.40659876 31.48062562 -23.30541992 27.74853516 C-22.31068164 22.65226192 -19.24740488 18.39536349 -16.52734375 14.05078125 C-15.93244141 13.06271484 -15.33753906 12.07464844 -14.72460938 11.05664062 C-7.8406806 -0.24223241 -7.8406806 -0.24223241 0 0 Z " fill="#000000" transform="translate(184.83984375,230.63671875)"/>
<path d="M0 0 C4.83766699 0.41465717 6.85646376 2.4198615 10 6 C11.44430855 8.88861709 11.37688506 10.79647701 11 14 C9 16.875 9 16.875 6 19 C1.27302796 19.67528172 -1.50143974 19.63734826 -5.5 17 C-6.325 16.34 -7.15 15.68 -8 15 C-2.81321185 4.44191344 -2.81321185 4.44191344 0 0 Z " fill="#000000" transform="translate(278,291)"/>
</svg>
